<svg width="86" height="86" viewBox="0 0 86 86" fill="none" xmlns="http://www.w3.org/2000/svg">
<g clip-path="url(#clip0)">
<path d="M53.0099 37.7129C52.4241 37.3234 51.7265 37.1379 51.0246 37.1846H42.347C42.5928 36.8025 42.8656 36.4387 43.1636 36.0959C44.2202 34.9293 45.3774 33.8578 46.6218 32.8938C48.2975 31.5275 49.493 30.5243 50.2081 29.8839C51.0322 29.1042 51.7387 28.209 52.3054 27.2261C52.9923 26.0868 53.3473 24.778 53.3301 23.4477C53.3251 21.698 52.6555 20.0155 51.4569 18.7407C50.8601 18.1221 50.1475 17.627 49.3595 17.2837C47.9747 16.7138 46.4857 16.4412 44.9887 16.4832C43.7275 16.4564 42.4727 16.6681 41.2903 17.1076C40.3215 17.46 39.4338 18.0046 38.6807 18.7087C37.9982 19.3501 37.4535 20.1236 37.0796 20.9821C36.7528 21.7412 36.5787 22.5573 36.5673 23.3837C36.5355 23.9386 36.732 24.4826 37.1117 24.8886C37.4803 25.2557 37.9848 25.4528 38.5046 25.433C39.0535 25.4664 39.5865 25.2413 39.9455 24.8246C40.3353 24.3027 40.6333 23.7179 40.826 23.0955C40.9711 22.6208 41.1589 22.1599 41.3864 21.7186C42.1029 20.5038 43.4185 19.7695 44.8286 19.7974C45.4979 19.7891 46.1583 19.9487 46.7499 20.2617C47.326 20.563 47.8079 21.0171 48.1428 21.5745C48.4888 22.1549 48.6663 22.8201 48.6551 23.4957C48.6437 24.1952 48.4798 24.8836 48.1748 25.513C47.8528 26.2599 47.4151 26.9516 46.8779 27.5624C46.1735 28.2916 45.3956 28.9463 44.5565 29.5156C43.6737 30.1879 42.8341 30.9151 42.0428 31.693C40.8475 32.7603 39.5078 34.0786 38.0242 35.6476C37.6072 36.1227 37.2718 36.6636 37.0316 37.2486C36.7756 37.7465 36.6231 38.2911 36.5833 38.8496C36.5879 39.4574 36.8427 40.0366 37.2878 40.4507C37.8189 40.9348 38.5236 41.1831 39.241 41.1391H51.553C52.1427 41.1721 52.7205 40.964 53.154 40.5627C53.5146 40.1901 53.7105 39.6882 53.6983 39.1698C53.7202 38.6011 53.4632 38.0571 53.0099 37.7129Z" fill="white"/>
<path d="M74.0152 32.4295C73.3586 32.1701 72.6553 32.0502 71.9499 32.0772H71.2294V19.205C71.2294 17.2623 70.3809 16.2911 68.6838 16.2911C68.1832 16.2821 67.6995 16.472 67.3389 16.8194C66.818 17.345 66.3415 17.9125 65.914 18.5165L57.0603 30.3641L56.4359 31.1807C56.2652 31.4048 56.1051 31.6344 55.9556 31.8691C55.8123 32.0845 55.694 32.3154 55.6033 32.5576C55.5293 32.7629 55.4913 32.9796 55.4913 33.198C55.4584 33.935 55.7512 34.6491 56.2918 35.1512C56.9592 35.6776 57.7969 35.9397 58.6453 35.8877H66.9707V38.9937C66.9184 39.6783 67.1242 40.358 67.547 40.8989C67.9333 41.3284 68.4908 41.5634 69.068 41.5393C69.6694 41.5898 70.2606 41.3592 70.669 40.9149C71.0873 40.366 71.287 39.6813 71.2294 38.9937V35.8877H72.2541C72.9197 35.9315 73.5831 35.7754 74.1593 35.4394C74.6006 35.111 74.8425 34.5791 74.7997 34.0305C74.9164 33.3827 74.5986 32.7343 74.0152 32.4295ZM66.9707 32.1413H59.8461L66.9707 22.423V32.1413Z" fill="white"/>
<path d="M75.3766 82.798L75.3285 82.6539C69.4207 82.91 67.1793 79.2277 64.5696 74.9689C62.2641 71.2065 59.6704 66.9638 54.1949 66.9638C54.5101 66.3083 54.7363 65.6137 54.8673 64.8984C55.5398 60.8638 53.7146 54.6358 41.2266 47.9915C40.7605 47.7468 40.2037 47.7468 39.7376 47.9915L35.5429 50.1529C34.5342 50.1529 29.9713 49.7527 25.0241 40.0985C20.8614 29.8358 23.247 26.0574 23.7593 25.401L28.0661 23.5118C28.5494 23.2992 28.8968 22.862 28.9947 22.343C31.6844 8.44607 27.986 3.13065 24.4317 1.09734C23.0192 0.360265 21.4458 -0.0137762 19.8528 0.00863819C16.2122 -0.155467 12.8763 2.03194 11.5755 5.43613C8.9978 11.8403 6.03589 25.6572 15.0017 44.7895C24.2236 63.7777 36.7757 70.0858 43.436 72.1671C44.2957 72.4397 45.1917 72.58 46.0937 72.5834C48.1652 72.562 50.1555 71.7751 51.6813 70.374C51.772 70.3818 51.8628 70.3818 51.9535 70.374C57.0768 69.3333 58.966 71.975 61.8799 76.7781C64.4095 80.8927 67.5315 86 74.8162 86H75.5046C76.3888 85.9646 77.0771 85.2191 77.0416 84.3349C77.0062 83.4508 76.2607 82.7625 75.3766 82.798ZM51.6973 64.29C51.1039 67.0118 48.819 69.0379 46.0457 69.3013C45.4695 69.2963 44.8973 69.2046 44.3486 69.0291C38.1526 67.1078 26.5451 61.2161 17.8515 43.3325C9.1579 25.449 12.1198 12.4807 14.5053 6.54084C15.3515 4.38005 17.4877 3.00537 19.8048 3.13065C20.8478 3.10623 21.8811 3.33718 22.8147 3.80308C26.449 5.86841 27.6178 11.8883 26.0168 20.822L22.2063 22.4231C22.074 22.4809 21.9501 22.5562 21.8381 22.6472C21.2777 23.1115 16.5547 27.4503 22.1423 41.2512C27.6498 52.0261 33.3495 53.1789 35.4628 53.1789C35.7857 53.1821 36.1077 53.1499 36.4235 53.0828C36.5517 53.0502 36.6754 53.0018 36.7917 52.9387L40.4901 51.0335C48.3992 55.5164 52.3857 60.1754 51.6973 64.29Z" fill="white"/>
</g>
<defs>
<clipPath id="clip0">
<rect width="86" height="86" fill="white"/>
</clipPath>
</defs>
</svg>
