<svg width="496" height="496" viewBox="0 0 496 496" fill="none" xmlns="http://www.w3.org/2000/svg">
<path d="M496 414.207V353.785L472.855 347.871C472.695 347.48 472.535 347.09 472.367 346.703L484.551 326.168L441.824 283.441L421.289 295.625C420.895 295.457 420.504 295.297 420.121 295.137L414.207 272H353.785L347.871 295.145C347.48 295.305 347.09 295.465 346.703 295.633L326.168 283.449L283.441 326.176L295.625 346.711C295.457 347.105 295.297 347.496 295.137 347.879L272 353.793V414.215L295.145 420.129C295.305 420.52 295.465 420.91 295.633 421.297L283.449 441.832L326.176 484.559L346.711 472.375C347.105 472.543 347.496 472.703 347.879 472.863L353.793 496H414.215L420.129 472.855C420.52 472.695 420.91 472.535 421.297 472.367L441.832 484.551L484.559 441.824L472.375 421.289C472.543 420.895 472.703 420.504 472.863 420.121L496 414.207ZM464.457 439.305L439.305 464.457L422.207 454.312L418.359 456.152C415.879 457.328 413.344 458.391 410.734 459.312L406.703 460.742L401.793 480H366.215L361.305 460.742L357.273 459.312C354.664 458.398 352.121 457.336 349.648 456.152L345.801 454.312L328.703 464.457L303.551 439.305L313.695 422.207L311.855 418.359C310.68 415.879 309.617 413.344 308.695 410.734L307.266 406.703L288 401.793V366.215L307.258 361.305L308.688 357.273C309.602 354.664 310.664 352.121 311.848 349.648L313.688 345.801L303.543 328.703L328.695 303.551L345.793 313.695L349.641 311.855C352.121 310.68 354.656 309.617 357.266 308.695L361.297 307.266L366.207 288H401.785L406.695 307.258L410.727 308.688C413.336 309.602 415.879 310.664 418.352 311.848L422.199 313.688L439.297 303.543L464.449 328.695L454.305 345.793L456.145 349.641C457.32 352.121 458.383 354.656 459.305 357.266L460.734 361.297L480 366.207V401.785L460.742 406.695L459.312 410.727C458.398 413.336 457.336 415.879 456.152 418.352L454.312 422.199L464.457 439.305Z" fill="white"/>
<path d="M384 320C348.711 320 320 348.711 320 384C320 419.289 348.711 448 384 448C419.289 448 448 419.289 448 384C448 348.711 419.289 320 384 320ZM384 432C357.527 432 336 410.473 336 384C336 357.527 357.527 336 384 336C410.473 336 432 357.527 432 384C432 410.473 410.473 432 384 432Z" fill="white"/>
<path d="M384 352C366.352 352 352 366.352 352 384C352 401.648 366.352 416 384 416C401.648 416 416 401.648 416 384C416 366.352 401.648 352 384 352ZM384 400C375.176 400 368 392.824 368 384C368 375.176 375.176 368 384 368C392.824 368 400 375.176 400 384C400 392.824 392.824 400 384 400Z" fill="white"/>
<path d="M202.602 135.457C205.281 143.313 209.945 150.238 216 155.68V162.465L177.961 176.727C162.434 182.543 152 197.594 152 214.176V256H344V214.176C344 197.594 333.566 182.543 318.047 176.719L280 162.457V155.68C286.055 150.246 290.719 143.32 293.398 135.457C308.473 132.871 320 119.793 320 104V72C320 32.3047 287.703 0 248 0C208.297 0 176 32.3047 176 72V104C176 119.793 187.527 132.871 202.602 135.457ZM264 165.785L248 192.449L232 165.785V165.199C237.016 166.984 242.383 168 248 168C253.617 168 258.984 166.977 264 165.199V165.785ZM220.566 177.832L236.695 204.703L220.672 212.711L210.32 181.672L220.566 177.832ZM328 214.176V240H168V214.176C168 204.223 174.258 195.199 183.574 191.703L195.336 187.297L211.328 235.281L248 216.945L284.672 235.281L300.664 187.297L312.434 191.711C321.742 195.199 328 204.223 328 214.176ZM285.68 181.672L275.328 212.719L259.305 204.711L275.434 177.832L285.68 181.672ZM248 152C230.352 152 216 137.648 216 120V87.457C227.711 86.2227 238.762 81.9531 248 74.6875C257.238 81.9609 268.289 86.2227 280 87.457V120C280 137.648 265.648 152 248 152ZM296 117.777V90.2305C300.762 93.0078 304 98.1133 304 104.008C304 109.902 300.762 115 296 117.777ZM248 16C278.871 16 304 41.1211 304 72V76.4492C299.273 73.6953 293.855 72 288 72H286.625C274.168 72 262.457 67.1523 253.656 58.3438L248 52.6797L242.344 58.3438C233.535 67.1523 221.832 72 209.375 72H208C202.145 72 196.727 73.6953 192 76.4492V72C192 41.1211 217.129 16 248 16ZM200 90.2227V117.77C195.238 114.992 192 109.887 192 103.992C192 98.0977 195.238 93 200 90.2227Z" fill="white"/>
<path d="M0 496H160V288H0V496ZM16 304H144V480H16V304Z" fill="white"/>
<path d="M32 320H128V336H32V320Z" fill="white"/>
<path d="M32 352H48V368H32V352Z" fill="white"/>
<path d="M64 352H128V368H64V352Z" fill="white"/>
<path d="M32 384H128V400H32V384Z" fill="white"/>
<path d="M32 416H128V432H32V416Z" fill="white"/>
<path d="M112 448H128V464H112V448Z" fill="white"/>
<path d="M32 448H96V464H32V448Z" fill="white"/>
<path d="M213.656 357.656L202.344 346.344L164.688 384L202.344 421.656L213.656 410.344L195.312 392H256V376H195.312L213.656 357.656Z" fill="white"/>
<path d="M88 128C88 123.594 91.5859 120 96 120H132.688L114.344 138.344L125.656 149.656L163.312 112L125.656 74.3438L114.344 85.6562L132.688 104H96C82.7695 104 72 114.77 72 128V272H88V128Z" fill="white"/>
<path d="M384 128V228.688L365.656 210.344L354.344 221.656L392 259.312L429.656 221.656L418.344 210.344L400 228.688V128C400 114.77 389.23 104 376 104H336V120H376C380.414 120 384 123.594 384 128Z" fill="white"/>
</svg>
