<svg width="86" height="86" viewBox="0 0 86 86" fill="none" xmlns="http://www.w3.org/2000/svg">
<g clip-path="url(#clip0)">
<path d="M75.8619 30.5279L75.843 30.377C75.843 29.8676 75.843 29.3583 75.843 28.8867C75.8388 19.6037 68.3102 12.0816 59.0271 12.0859C58.1643 12.0864 57.3029 12.1531 56.4503 12.2859C53.9292 3.33014 44.6257 -1.88662 35.67 0.634156C30.4275 2.10984 26.2219 6.02872 24.3805 11.154H23.6825C14.3681 11.1535 6.81688 18.7036 6.81641 28.018C6.81641 29.3269 6.96874 30.6314 7.27034 31.9052C2.33183 35.1846 0.986791 41.8464 4.2664 46.7849C6.26392 49.7929 9.63973 51.5949 13.2504 51.5808H72.7869C78.7255 51.5739 83.5341 46.7543 83.5273 40.8155C83.5218 36.0708 80.4068 31.8904 75.8619 30.5279ZM72.7869 48.5436V48.6002H13.2504C8.88562 48.6763 5.28555 45.1998 5.20939 40.835C5.15704 37.8323 6.81075 35.0594 9.47749 33.6783C10.0779 33.3635 10.3705 32.6674 10.1755 32.0182C7.92494 24.6006 12.1138 16.7631 19.5314 14.5128C20.8528 14.1119 22.2262 13.9082 23.607 13.9082C24.1223 13.8794 24.6387 13.8794 25.1539 13.9082C25.8357 13.9726 26.4679 13.546 26.6631 12.8895C28.6953 5.41986 36.3979 1.01216 43.8674 3.04411C49.1181 4.47262 53.0674 8.811 53.9979 14.1723C54.1433 14.9401 54.8838 15.4443 55.6516 15.2988C55.6726 15.2948 55.6938 15.2903 55.7145 15.2853C63.1917 13.4064 70.7767 17.9448 72.6556 25.422C73.1263 27.2952 73.2032 29.2458 72.8813 31.1504C72.7464 31.9201 73.2609 32.6535 74.0306 32.7883C74.0374 32.7895 74.044 32.7907 74.0509 32.7916C78.3746 33.4644 81.3345 37.5149 80.6617 41.8386C80.0585 45.7151 76.7096 48.5664 72.7869 48.5436Z" fill="white"/>
<path d="M56.3948 56.7926C55.9694 56.1371 55.0931 55.9508 54.4378 56.3762C54.3058 56.462 54.1888 56.5693 54.0919 56.6936C48.1675 62.2332 38.9634 62.2332 33.039 56.6936C32.5589 56.0772 31.6699 55.9666 31.0533 56.447C30.4369 56.9271 30.3263 57.816 30.8066 58.4327C30.9035 58.557 31.0203 58.6642 31.1526 58.7501C38.1676 65.3196 49.0765 65.3196 56.0915 58.7501H55.9783C56.6336 58.3242 56.8202 57.448 56.3948 56.7926Z" fill="white"/>
<path d="M62.1459 65.2528C61.6702 64.8824 61.0119 64.8538 60.5061 65.1823C50.946 74.1055 36.1099 74.1055 26.5498 65.1823C25.9924 64.6348 25.0966 64.6428 24.549 65.2002C24.5365 65.213 24.5245 65.2257 24.5125 65.2389C23.9607 65.7914 23.9607 66.6861 24.5125 67.2386C35.1721 77.2059 51.7329 77.2059 62.3925 67.2386C62.8729 66.6219 62.7625 65.7329 62.1459 65.2528Z" fill="white"/>
<path d="M70.0336 73.7516C69.6082 73.0961 68.7319 72.9098 68.0766 73.3352C67.9446 73.421 67.8276 73.5283 67.7307 73.6526H67.6364C54.0593 86.356 32.9579 86.356 19.3808 73.6526C18.9007 73.0362 18.0117 72.9256 17.3951 73.4059C16.7787 73.886 16.6681 74.775 17.1484 75.3917C17.2453 75.5159 17.3621 75.6232 17.4944 75.7091C32.1594 89.4309 54.9521 89.4309 69.6171 75.7091C70.2724 75.2832 70.459 74.4069 70.0336 73.7516Z" fill="white"/>
</g>
<defs>
<clipPath id="clip0">
<rect width="86" height="86" fill="white"/>
</clipPath>
</defs>
</svg>
