<svg width="519" height="519" viewBox="0 0 519 519" fill="none" xmlns="http://www.w3.org/2000/svg">
<g clip-path="url(#clip0)">
<path d="M218.936 92.9772L203.812 86.3073C203.126 83.768 202.382 81.3642 201.552 79.0459L209.957 64.5741C211.488 61.9276 211.514 58.6712 210.025 56.0009C205.885 48.6095 200.94 41.698 195.282 35.3921C193.185 33.0294 189.962 32.0068 186.887 32.7261L170.976 36.366C169.123 34.8851 167.188 33.4573 165.171 32.0837L163.63 15.2416C163.344 12.164 161.442 9.47197 158.637 8.17526C151.053 4.62311 143.089 1.94844 134.898 0.203245C131.808 -0.454319 128.607 0.630066 126.553 3.02958L115.449 15.9198H108.781L97.6746 3.02849C95.6229 0.626816 92.4195 -0.458652 89.33 0.202161C81.1391 1.94844 73.1747 4.62311 65.5905 8.17418C62.7826 9.47305 60.8803 12.1694 60.5975 15.2492L59.0571 32.0826C57.0508 33.4541 55.1052 34.8841 53.2517 36.3649L37.3391 32.7261C34.2636 32.0046 31.0397 33.0284 28.9435 35.3921C23.2843 41.6969 18.3401 48.6084 14.2008 56.0009C12.7113 58.6712 12.7373 61.9276 14.2691 64.5741L22.6733 79.0459C21.8435 81.3653 21.0993 83.768 20.4136 86.3073L5.28851 92.9761C2.1491 94.3638 0.124407 97.4729 0.12549 100.906V124.45C0.123323 127.883 2.14801 130.992 5.28851 132.38L20.4125 139.05C21.0982 141.589 21.8424 143.993 22.6722 146.311L14.268 160.783C12.7362 163.43 12.7102 166.686 14.1997 169.356C18.3401 176.748 23.2843 183.659 28.9424 189.965C31.0429 192.322 34.2625 193.345 37.338 192.631L53.2484 188.991C55.102 190.472 57.0367 191.9 59.0538 193.274L60.5943 210.116C60.8803 213.193 62.7826 215.885 65.5872 217.182C73.1714 220.734 81.1359 223.409 89.3267 225.154C92.4163 225.807 95.6153 224.724 97.6714 222.328L108.775 209.439H115.444L126.548 222.328C128.193 224.242 130.592 225.343 133.116 225.34C133.713 225.341 134.309 225.279 134.894 225.154C143.084 223.408 151.049 220.733 158.633 217.182C161.441 215.883 163.343 213.187 163.626 210.107L165.166 193.274C167.173 191.902 169.118 190.472 170.972 188.991L186.883 192.63C189.959 193.347 193.181 192.324 195.279 189.964C200.938 183.659 205.882 176.748 210.022 169.355C211.511 166.685 211.485 163.429 209.953 160.782L201.549 146.31C202.379 143.991 203.123 141.588 203.809 139.049L218.933 132.38C222.072 130.992 224.097 127.883 224.096 124.45V100.907C224.1 97.474 222.076 94.3638 218.936 92.9772ZM206.767 118.806L192.93 124.909C190.431 126.016 188.599 128.236 187.987 130.9C187.016 135.291 185.673 139.592 183.976 143.756C182.942 146.252 183.13 149.086 184.484 151.423L192.414 165.091C190.343 168.379 188.079 171.541 185.634 174.562L170.654 171.134C167.931 170.495 165.068 171.221 162.978 173.081C159.66 175.994 156.105 178.624 152.348 180.943C150.036 182.376 148.531 184.811 148.285 187.519L146.829 203.422C143.37 204.826 139.832 206.027 136.234 207.018L125.985 195.12C124.338 193.207 121.941 192.108 119.416 192.107H104.808C102.285 192.108 99.8878 193.207 98.2401 195.12L87.991 207.018C84.389 206.027 80.8488 204.826 77.3866 203.422L75.9306 187.503C75.6793 184.799 74.1757 182.368 71.8682 180.936C68.1124 178.623 64.5592 175.995 61.2464 173.082C59.1568 171.223 56.2936 170.497 53.5702 171.135L38.5903 174.563C36.1453 171.543 33.8823 168.38 31.811 165.093L39.7407 151.425C41.0938 149.087 41.2823 146.253 40.2488 143.757C38.5513 139.593 37.2091 135.292 36.2373 130.901C35.6253 128.238 33.7945 126.017 31.2942 124.91L17.4572 118.807V106.552L31.2953 100.45C33.7945 99.3427 35.6264 97.1219 36.2384 94.458C37.2102 90.0674 38.5524 85.7667 40.2499 81.6025C41.2834 79.1066 41.096 76.2727 39.7418 73.9349L31.8121 60.2669C33.8822 56.9791 36.1453 53.8169 38.5903 50.7967L53.5702 54.2242C56.2936 54.858 59.1546 54.1322 61.2464 52.2775C64.5646 49.3645 68.12 46.7343 71.8769 44.4149C74.1886 42.9828 75.6934 40.5476 75.9393 37.8393L77.3952 21.9364C80.8542 20.5325 84.3923 19.3311 87.991 18.3399L98.2401 30.2389C99.8867 32.1509 102.284 33.2504 104.808 33.2515H119.415C121.938 33.2504 124.336 32.1498 125.983 30.2389L136.233 18.3399C139.835 19.3311 143.375 20.5325 146.837 21.9364L148.293 37.8556C148.544 40.5595 150.048 42.9904 152.355 44.4225C156.111 46.7354 159.664 49.3635 162.977 52.2765C165.068 54.1322 167.93 54.858 170.653 54.2232L185.633 50.7956C188.078 53.8158 190.342 56.978 192.413 60.2658L184.483 73.9338C183.13 76.2716 182.941 79.1055 183.975 81.6014C185.672 85.7656 187.014 90.0663 187.986 94.457C188.598 97.1208 190.429 99.3416 192.929 100.449L206.766 106.551V118.806H206.767Z" fill="white"/>
<path d="M112.112 52.004C78.608 52.004 51.4475 79.1646 51.4475 112.669C51.4876 146.156 78.6254 173.294 112.112 173.334C145.617 173.334 172.777 146.173 172.777 112.669C172.777 79.1646 145.617 52.004 112.112 52.004ZM112.112 156.001C88.1812 156.001 68.7803 136.6 68.7803 112.669C68.8085 88.7485 88.192 69.365 112.112 69.3368C136.044 69.3368 155.444 88.7377 155.444 112.669C155.444 136.6 136.044 156.001 112.112 156.001Z" fill="white"/>
<path d="M513.704 77.5889L501.737 72.3078C501.271 70.6319 500.764 69.0243 500.222 67.4579L506.891 55.9651C508.423 53.3154 508.449 50.0568 506.959 47.3832C503.451 41.1358 499.268 35.2925 494.484 29.9572C492.388 27.5989 489.171 26.5751 486.097 27.2912L473.504 30.1685C472.268 29.2032 470.998 28.2673 469.695 27.3584L468.476 14.0034C468.197 10.9225 466.293 8.22402 463.483 6.92839C457.059 3.92764 450.317 1.66463 443.383 0.18267C440.293 -0.477061 437.09 0.607324 435.038 3.009L426.219 13.2495H421.987L413.168 3.009C411.118 0.605158 407.913 -0.48031 404.824 0.18267C397.89 1.66463 391.147 3.92656 384.723 6.92839C381.913 8.22402 380.01 10.9225 379.73 14.0034L378.511 27.3584C377.208 28.264 375.938 29.2011 374.702 30.1685L362.109 27.2912C359.036 26.5795 355.82 27.6021 353.722 29.9572C348.937 35.2914 344.757 41.1391 341.255 47.3919C339.766 50.0622 339.791 53.3186 341.323 55.9651L347.984 67.4492C347.442 69.0146 346.937 70.6341 346.469 72.3067L334.502 77.5889C331.358 78.9723 329.329 82.0835 329.332 85.5187V105.136C329.329 108.571 331.358 111.683 334.502 113.066L346.469 118.347C346.935 120.023 347.442 121.631 347.984 123.197L341.315 134.691C339.783 137.341 339.757 140.599 341.247 143.273C344.755 149.52 348.938 155.363 353.722 160.699C355.82 163.058 359.042 164.082 362.118 163.365L374.694 160.479C375.93 161.452 377.207 162.392 378.51 163.298L379.729 176.653C380.008 179.734 381.913 182.432 384.722 183.728C391.146 186.728 397.888 188.991 404.823 190.473C407.912 191.128 411.112 190.044 413.167 187.647L421.986 177.406H426.218L435.037 187.647C436.682 189.561 439.081 190.662 441.605 190.66C442.202 190.661 442.798 190.598 443.383 190.473C450.317 188.991 457.059 186.729 463.483 183.728C466.293 182.432 468.197 179.733 468.476 176.653L469.695 163.298C470.998 162.392 472.268 161.455 473.504 160.487L486.097 163.365C489.171 164.078 492.387 163.055 494.484 160.699C499.267 155.365 503.451 149.52 506.959 143.273C508.449 140.599 508.423 137.341 506.891 134.691L500.222 123.198C500.764 121.633 501.272 120.024 501.737 118.348L513.704 113.067C516.848 111.684 518.877 108.572 518.875 105.137V85.5187C518.877 82.0835 516.848 78.9723 513.704 77.5889ZM501.542 99.4922L490.869 104.198C488.358 105.302 486.521 107.531 485.919 110.207C485.127 113.778 484.034 117.273 482.651 120.659C481.618 123.157 481.805 125.994 483.159 128.335L489.329 138.966C487.932 141.132 486.425 143.242 484.809 145.296L473.197 142.639C470.479 142.003 467.623 142.729 465.538 144.586C462.839 146.954 459.946 149.091 456.889 150.975C454.571 152.407 453.06 154.846 452.81 157.559L451.684 169.933C449.357 170.847 447.02 171.642 444.693 172.303L436.755 163.086C435.108 161.174 432.711 160.075 430.188 160.074H418.018C415.495 160.075 413.098 161.175 411.451 163.086L403.513 172.303C401.186 171.643 398.849 170.847 396.522 169.933L395.397 157.559C395.146 154.846 393.636 152.407 391.317 150.975C388.261 149.093 385.371 146.955 382.675 144.586C380.577 142.742 377.724 142.015 374.999 142.63L363.396 145.288C361.78 143.248 360.273 141.132 358.876 138.966L365.046 128.335C366.399 125.994 366.587 123.157 365.554 120.659C364.172 117.273 363.079 113.777 362.287 110.207C361.683 107.531 359.846 105.302 357.336 104.198L346.663 99.4922V91.1648L357.336 86.459C359.847 85.3551 361.684 83.1257 362.287 80.4499C363.08 76.875 364.173 73.3727 365.554 69.9809C366.587 67.4849 366.4 64.651 365.046 62.3133L358.884 51.6828C360.272 49.5249 361.779 47.4092 363.395 45.3607L375.007 48.018C377.725 48.6463 380.578 47.9216 382.666 46.0713C385.365 43.7032 388.258 41.5659 391.315 39.682C393.633 38.2499 395.144 35.8114 395.395 33.0977L396.52 20.7242C398.847 19.8099 401.184 19.0148 403.511 18.354L411.449 27.5707C413.096 29.4827 415.493 30.5823 418.017 30.5834H430.187C432.71 30.5823 435.108 29.4827 436.755 27.5707L444.693 18.354C447.02 19.0137 449.357 19.8099 451.684 20.7242L452.81 33.0977C453.06 35.8114 454.57 38.2499 456.889 39.682C459.946 41.5659 462.839 43.7032 465.538 46.0713C467.625 47.9238 470.48 48.6496 473.197 48.018L484.809 45.3607C486.425 47.4092 487.932 49.5184 489.329 51.6915L483.159 62.3219C481.806 64.6629 481.618 67.5001 482.651 69.9982C484.034 73.3835 485.127 76.8804 485.919 80.4499C486.522 83.1257 488.359 85.3551 490.869 86.459L501.542 91.1648V99.4922V99.4922Z" fill="white"/>
<path d="M424.103 52.004C400.172 52.004 380.771 71.4049 380.771 95.3361C380.799 119.256 400.183 138.64 424.103 138.668C448.034 138.668 467.435 119.267 467.435 95.3361C467.435 71.4049 448.034 52.004 424.103 52.004ZM424.103 121.335C409.744 121.335 398.104 109.695 398.104 95.3361C398.119 80.9834 409.75 69.352 424.103 69.3368C438.462 69.3368 450.102 80.9769 450.102 95.3361C450.102 109.695 438.461 121.335 424.103 121.335Z" fill="white"/>
<path d="M511.562 366.736L499.002 364.095C498.485 361.92 497.901 359.745 497.25 357.587L506.882 348.954C509.647 346.479 510.529 342.517 509.073 339.103C504.893 329.4 499.547 320.244 493.154 311.834C490.916 308.876 487.05 307.663 483.523 308.812L471.411 312.79C469.871 311.157 468.272 309.558 466.638 308.017L470.616 295.915C471.774 292.393 470.563 288.524 467.603 286.292C459.194 279.888 450.035 274.536 440.326 270.355C436.91 268.914 432.957 269.794 430.474 272.547L421.842 282.186C419.684 281.526 417.508 280.942 415.333 280.426L412.692 267.866C411.847 263.856 408.31 260.986 404.212 260.985H374.66C370.561 260.986 367.024 263.855 366.179 267.866L363.538 280.426C361.363 280.942 359.188 281.526 357.03 282.177L348.397 272.546C345.915 269.792 341.961 268.912 338.546 270.354C328.843 274.535 319.687 279.881 311.277 286.273C308.312 288.506 307.097 292.378 308.255 295.905L312.233 308.016C310.6 309.557 309.001 311.156 307.46 312.789L295.358 308.811C291.836 307.671 287.977 308.878 285.735 311.824C279.331 320.234 273.979 329.393 269.798 339.101C268.342 342.516 269.224 346.478 271.99 348.953L281.629 357.586C280.969 359.744 280.385 361.919 279.869 364.094L267.309 366.735C263.299 367.58 260.429 371.117 260.428 375.215V404.769C260.429 408.867 263.298 412.404 267.309 413.249L279.869 415.89C280.385 418.065 280.969 420.241 281.62 422.399L271.989 431.031C269.223 433.507 268.341 437.468 269.797 440.883C273.978 450.585 279.324 459.741 285.716 468.152C287.954 471.109 291.821 472.323 295.348 471.173L307.459 467.195C309 468.829 310.599 470.428 312.232 471.968L308.254 484.071C307.096 487.593 308.307 491.461 311.267 493.694C319.677 500.097 328.836 505.45 338.544 509.63C341.958 511.094 345.925 510.211 348.396 507.439L357.029 497.8C359.187 498.459 361.362 499.043 363.537 499.56L366.178 512.12C367.023 516.129 370.56 519 374.658 519.001H404.212C408.31 519 411.847 516.13 412.692 512.12L415.333 499.56C417.508 499.043 419.684 498.459 421.842 497.808L430.474 507.44C432.945 510.212 436.913 511.094 440.326 509.631C450.028 505.451 459.184 500.105 467.595 493.712C470.56 491.48 471.774 487.607 470.616 484.081L466.638 471.969C468.272 470.429 469.871 468.83 471.411 467.196L483.514 471.174C487.036 472.324 490.899 471.114 493.137 468.162C499.54 459.752 504.893 450.593 509.073 440.884C510.529 437.469 509.647 433.508 506.882 431.033L497.243 422.4C497.902 420.242 498.486 418.067 499.003 415.891L511.563 413.25C515.572 412.405 518.443 408.868 518.444 404.77V375.217C518.442 371.119 515.572 367.581 511.562 366.736ZM501.109 397.737L489.896 400.099C486.444 400.825 483.777 403.569 483.15 407.039C482.214 412.179 480.852 417.231 479.079 422.146C477.885 425.468 478.826 429.18 481.457 431.532L490.547 439.674C488.286 444.189 485.727 448.549 482.888 452.725L471.437 448.958C468.082 447.863 464.398 448.903 462.111 451.59C458.729 455.589 455.021 459.3 451.025 462.685C448.339 464.971 447.302 468.653 448.401 472.004L452.168 483.446C447.993 486.287 443.633 488.846 439.117 491.105L430.967 482.015C428.607 479.392 424.897 478.453 421.573 479.637C416.666 481.414 411.617 482.775 406.483 483.708C403.013 484.335 400.268 487.002 399.543 490.454L397.181 501.668H381.693L379.332 490.454C378.606 487.002 375.862 484.335 372.392 483.708C367.252 482.772 362.199 481.41 357.284 479.637H357.286C353.964 478.463 350.261 479.401 347.9 482.015L339.758 491.105C335.243 488.844 330.882 486.285 326.707 483.446L330.474 471.995C331.574 468.64 330.533 464.953 327.841 462.669C323.843 459.287 320.132 455.579 316.746 451.583C314.457 448.903 310.779 447.867 307.428 448.959L295.985 452.726C293.143 448.551 290.585 444.191 288.326 439.675L297.416 431.525C300.047 429.17 300.987 425.455 299.794 422.131C298.017 417.224 296.655 412.175 295.723 407.041C295.095 403.571 292.428 400.826 288.977 400.101L277.763 397.739V382.251L288.977 379.89C292.428 379.164 295.095 376.42 295.723 372.95C296.659 367.81 298.02 362.757 299.794 357.843C300.987 354.521 300.046 350.809 297.416 348.457L288.326 340.316C290.587 335.801 293.145 331.44 295.985 327.265L307.435 331.032C310.79 332.127 314.475 331.087 316.761 328.4C320.143 324.401 323.852 320.69 327.848 317.304C330.533 315.019 331.57 311.336 330.472 307.986L326.705 296.544C330.88 293.702 335.239 291.144 339.756 288.885L347.905 297.975C350.264 300.601 353.976 301.54 357.3 300.353C362.207 298.576 367.255 297.215 372.39 296.282C375.86 295.655 378.605 292.987 379.33 289.536L381.691 278.322H397.179L399.541 289.536C400.267 292.987 403.011 295.655 406.48 296.282C411.621 297.218 416.673 298.579 421.587 300.353C424.908 301.542 428.619 300.602 430.973 297.975L439.115 288.885C443.63 291.146 447.99 293.705 452.165 296.544L448.399 307.994C447.298 311.349 448.339 315.037 451.031 317.321C455.03 320.703 458.741 324.411 462.126 328.407C464.42 331.079 468.093 332.113 471.445 331.031L482.887 327.264C485.728 331.439 488.287 335.798 490.546 340.315L481.456 348.464C478.824 350.82 477.884 354.535 479.078 357.859C480.854 362.766 482.216 367.814 483.149 372.949C483.776 376.419 486.443 379.164 489.895 379.889L501.109 382.25V397.737V397.737Z" fill="white"/>
<path d="M389.437 311.997C346.361 311.997 311.44 346.917 311.44 389.994C311.44 433.071 346.361 467.992 389.437 467.992C432.495 467.945 467.388 433.052 467.435 389.994C467.435 346.917 432.514 311.997 389.437 311.997ZM389.437 450.659C355.95 450.619 328.812 423.481 328.772 389.994C328.772 356.49 355.933 329.329 389.437 329.329C422.942 329.329 450.102 356.49 450.102 389.994C450.102 423.499 422.942 450.659 389.437 450.659Z" fill="white"/>
<path d="M311.439 95.3358H242.108V112.669H311.439V95.3358Z" fill="white"/>
<path d="M241.41 377.921C240.534 375.872 238.902 374.239 236.852 373.363L176.187 347.364C171.792 345.477 166.7 347.51 164.812 351.905C164.349 352.986 164.109 354.151 164.11 355.327V372.66H60.1135V233.997H42.7806V381.326C42.7774 386.11 46.6534 389.989 51.4373 389.993C51.4406 389.993 51.4438 389.993 51.4471 389.993H164.11V407.325C164.107 412.108 167.982 415.989 172.765 415.992C172.769 415.992 172.772 415.992 172.777 415.992C173.95 415.994 175.111 415.756 176.187 415.29L236.852 389.291C241.25 387.411 243.291 382.32 241.41 377.921ZM181.443 394.183V368.472L211.438 381.327L181.443 394.183Z" fill="white"/>
<path d="M417.442 358.443L380.186 403.154L360.898 383.867L348.644 396.121L374.643 422.12C376.266 423.749 378.471 424.662 380.77 424.66C380.897 424.66 381.032 424.66 381.159 424.651C383.593 424.542 385.868 423.415 387.43 421.545L430.762 369.547L417.442 358.443Z" fill="white"/>
</g>
<defs>
<clipPath id="clip0">
<rect width="519" height="519" fill="white"/>
</clipPath>
</defs>
</svg>
