<svg width="86" height="86" viewBox="0 0 86 86" fill="none" xmlns="http://www.w3.org/2000/svg">
<g clip-path="url(#clip0)">
<path d="M44.0645 50.8335H39.669C39.3919 49.9957 39.0521 49.1799 38.6522 48.3933L41.7807 45.2649C42.3872 44.6548 42.3872 43.6693 41.7807 43.0593L36.1494 37.428C35.5394 36.8215 34.5539 36.8215 33.9439 37.428L30.8154 40.5565C30.0429 40.1742 29.2428 39.8501 28.4221 39.5867V35.1912C28.4221 34.3273 27.7217 33.627 26.8579 33.627H18.849C17.9852 33.627 17.2848 34.3273 17.2848 35.1912V39.7587C16.4962 40.027 15.7278 40.351 14.9854 40.7286L11.7318 37.4908C11.1217 36.8843 10.1362 36.8843 9.52618 37.4908L3.91058 43.1062C3.30405 43.7163 3.30405 44.7017 3.91058 45.3118L7.19547 48.5967C6.8314 49.3197 6.51777 50.0671 6.25693 50.8335H1.56423C0.700386 50.8335 0 51.5339 0 52.3978V60.3597C0 61.2236 0.700386 61.9239 1.56423 61.9239H6.25693C6.51112 62.7006 6.81947 63.4586 7.17983 64.1921L3.91058 67.5083C3.30405 68.1183 3.30405 69.1038 3.91058 69.7138L9.54182 75.3451C10.1519 75.9516 11.1373 75.9516 11.7474 75.3451L14.9854 72.1071C15.728 72.4843 16.4964 72.8085 17.2848 73.0769V77.6445C17.2848 78.5083 17.9852 79.2087 18.849 79.2087H26.811C27.6748 79.2087 28.3752 78.5083 28.3752 77.6445V73.1708C29.1958 72.907 29.9957 72.583 30.7685 72.201L33.8969 75.3294C34.507 75.936 35.4925 75.936 36.1025 75.3294L41.7338 69.6982C42.3403 69.0881 42.3403 68.1027 41.7338 67.4926L38.6053 64.3641C39.0057 63.5777 39.3456 62.762 39.622 61.9239H44.0175C44.8814 61.9239 45.5818 61.2236 45.5818 60.3597V52.3978C45.5822 51.5519 44.9099 50.8589 44.0645 50.8335ZM42.5002 58.7955H38.4958C37.7641 58.7724 37.1142 59.2597 36.9316 59.9687C36.5988 61.3201 36.0718 62.6163 35.3673 63.8167C34.9991 64.4314 35.0959 65.2178 35.602 65.725L38.4332 68.5563L35.0075 71.9663L32.145 69.1038C31.6441 68.6003 30.8668 68.4976 30.2523 68.8535C29.0566 69.5562 27.7659 70.0832 26.4199 70.4177C25.7049 70.5943 25.2096 71.2456 25.2311 71.982V76.0803H20.4132V71.9194C20.4363 71.1877 19.9491 70.5378 19.2401 70.3552C17.9261 70.0136 16.6673 69.4868 15.5016 68.7909C14.8868 68.4227 14.1004 68.5195 13.5932 69.0256L10.6211 71.9976L7.21112 68.6189L10.1675 65.6155C10.671 65.1146 10.7737 64.3374 10.4178 63.7228C9.72562 62.5663 9.19906 61.3184 8.85356 60.0156C8.67094 59.3066 8.021 58.8193 7.28933 58.8424H3.15975V53.962H7.43011C8.16178 53.9851 8.81172 53.4978 8.99434 52.7888C9.34082 51.4864 9.86719 50.2385 10.5586 49.0816C10.8638 48.444 10.7035 47.681 10.1675 47.2201L7.21112 44.2168L10.6368 40.8068L13.6088 43.7788C14.116 44.2849 14.9025 44.3816 15.5172 44.0135C16.6837 43.3191 17.9423 42.7924 19.2557 42.4492C19.9584 42.2605 20.4381 41.6122 20.4132 40.885V36.7554H25.2467V40.8537C25.2252 41.5901 25.7205 42.2414 26.4355 42.4179C27.7816 42.7523 29.0723 43.2793 30.2679 43.9822C30.8825 44.338 31.6597 44.2354 32.1606 43.7319L35.0232 40.8537L38.4489 44.2637L35.602 47.1106C35.0959 47.6179 34.9991 48.4043 35.3673 49.019C36.0726 50.219 36.5995 51.5153 36.9316 52.867C37.1142 53.576 37.7641 54.0633 38.4958 54.0402H42.5002V58.7955Z" fill="white"/>
<path d="M22.8378 47.7056C18.0001 47.7056 14.0781 51.6275 14.0781 56.4653C14.0781 61.3031 18.0001 65.225 22.8378 65.225C27.6756 65.225 31.5975 61.3031 31.5975 56.4653C31.5889 51.6308 27.6721 47.7142 22.8378 47.7056ZM22.8378 62.0494V62.0963C19.7277 62.0963 17.2066 59.5752 17.2066 56.4651C17.2066 53.355 19.7277 50.8338 22.8378 50.8338C25.9479 50.8338 28.4691 53.355 28.4691 56.4651C28.4433 59.5568 25.9297 62.0496 22.8378 62.0494Z" fill="white"/>
<path d="M85.9708 29.0086C85.9659 28.9837 85.9606 28.9591 85.9545 28.9347L84.2652 21.223C84.0782 20.3814 83.2457 19.8498 82.4037 20.0342L78.1177 20.9727C77.6522 20.2143 77.1293 19.4926 76.5535 18.8141L78.9937 15.0912C79.4589 14.3652 79.2491 13.3999 78.5244 12.9325L71.7982 8.59962C71.0722 8.13446 70.1069 8.34426 69.6396 9.06889L67.2307 12.8231C66.3928 12.6136 65.5405 12.4672 64.6809 12.3851L63.7268 8.00521C63.5332 7.16326 62.6936 6.63768 61.8518 6.83145C61.8301 6.83634 61.8086 6.84181 61.7871 6.84768L53.966 8.55269C53.1246 8.73962 52.5928 9.57218 52.7771 10.4141L53.8721 14.8566C53.1559 15.2873 52.4711 15.7681 51.823 16.2957L47.9593 13.824C47.2333 13.3588 46.268 13.5686 45.8006 14.2932L41.4521 21.004C40.9869 21.73 41.1967 22.6953 41.9213 23.1626L45.8319 25.6654C45.6352 26.4575 45.4941 27.2625 45.4096 28.0743L40.8577 29.0754C40.0161 29.2624 39.4845 30.0949 39.6689 30.9369L41.3739 38.758C41.5608 39.5996 42.3934 40.1312 43.2353 39.9469L47.7872 38.9614C48.236 39.6522 48.7326 40.3107 49.2732 40.9323L46.7705 44.8429C46.3053 45.5689 46.5151 46.5342 47.2397 47.0016L53.9347 51.3032C54.6607 51.7684 55.626 51.5586 56.0933 50.8339L58.5648 46.9703C59.3715 47.1801 60.1922 47.3316 61.0206 47.4239L61.9905 51.882C62.1479 52.6158 62.8043 53.1343 63.5547 53.1177H63.8832L71.7044 51.4283C72.4978 51.1732 72.9518 50.3408 72.7368 49.5356L71.7826 45.1558C72.526 44.7231 73.2369 44.2368 73.9099 43.701L77.711 46.1412C78.437 46.6064 79.4023 46.3966 79.8697 45.672L84.1713 38.9614C84.6519 38.2436 84.4597 37.272 83.7419 36.7914C83.7237 36.7791 83.7052 36.7674 83.6864 36.7558L79.9792 34.3782C80.2011 33.5257 80.3579 32.6577 80.4484 31.7816L84.7344 30.843C85.5824 30.6778 86.136 29.8566 85.9708 29.0086ZM78.6652 29.0442C77.9709 29.1924 77.4635 29.7897 77.4295 30.4989C77.3814 31.8995 77.1283 33.2856 76.6786 34.6128C76.451 35.2931 76.7154 36.0412 77.32 36.4273L80.6987 38.586L78.0864 42.653L74.6764 40.4631C74.0755 40.0785 73.2905 40.1492 72.768 40.6351C71.7491 41.5717 70.6008 42.3568 69.358 42.9658C68.7102 43.281 68.3614 43.9978 68.5133 44.7021L69.3893 48.7066L64.6966 49.739L63.805 45.672C63.6568 44.9776 63.0594 44.4702 62.3502 44.4362C60.9917 44.3762 59.6488 44.1234 58.3615 43.6854C58.1999 43.6322 58.0308 43.6058 57.8609 43.6072C57.3291 43.6082 56.8342 43.8792 56.5469 44.3267L54.2788 47.8619L50.2118 45.2496L52.4017 41.6519C52.7863 41.051 52.7155 40.266 52.2296 39.7435C51.3187 38.7549 50.5499 37.6441 49.9459 36.443C49.6256 35.8013 48.91 35.4597 48.2096 35.6139L44.0487 36.5212L43.0163 31.8285L47.1772 30.9212C47.877 30.7715 48.3857 30.1659 48.4129 29.4509C48.5119 28.0927 48.8014 26.7551 49.2732 25.4777C49.4928 24.802 49.2294 24.0632 48.6319 23.6788L45.0655 21.3951L47.6777 17.328L51.119 19.5493C51.7234 19.9421 52.5181 19.8709 53.0431 19.3772C54.032 18.4424 55.1485 17.6524 56.3592 17.0308C56.9882 16.7072 57.3218 16.0018 57.1726 15.3102L56.281 11.2432L60.9737 10.2108L61.8497 14.2152C62.0071 14.949 62.6635 15.4676 63.4139 15.451C64.7965 15.4877 66.1664 15.7247 67.4809 16.1549C68.1567 16.3745 68.8954 16.1111 69.2798 15.5135L71.4697 12.1035L75.5367 14.7158L73.3624 18.0945C72.9737 18.7024 73.0514 19.4972 73.5502 20.0185C74.4838 21.0421 75.2636 22.1961 75.8652 23.4442C76.1855 24.0859 76.9011 24.4277 77.6015 24.2732L81.5121 23.4286L82.5445 28.1213L78.6652 29.0442Z" fill="white"/>
<path d="M71.4073 28.1056C70.5427 24.0738 66.9744 21.1969 62.8509 21.2073C58.0131 21.2055 54.0898 25.1259 54.0879 29.9637C54.0859 34.8015 58.0065 38.7248 62.8443 38.7267C67.6821 38.7285 71.6054 34.8081 71.6073 29.9703C71.6075 29.3433 71.5404 28.7182 71.4073 28.1056ZM64.0241 35.4731H64.0397C61.0081 36.0875 58.0366 34.1828 57.3292 31.1715C56.6703 28.1316 58.5935 25.1314 61.6308 24.4609C62.0268 24.3768 62.4305 24.335 62.8353 24.3358C65.9454 24.3313 68.4702 26.8487 68.4747 29.9588C68.4787 32.6168 66.6233 34.9157 64.0241 35.4731Z" fill="white"/>
</g>
<defs>
<clipPath id="clip0">
<rect width="86" height="86" fill="white"/>
</clipPath>
</defs>
</svg>
