<svg width="86" height="86" viewBox="0 0 86 86" fill="none" xmlns="http://www.w3.org/2000/svg">
<g clip-path="url(#clip0)">
<path d="M43.0001 25.6702C33.4914 25.6702 27.585 30.5381 27.585 38.4241C27.585 39.3202 28.3115 40.0468 29.2076 40.0468H56.7925C57.6886 40.0468 58.4152 39.3202 58.4152 38.4241C58.4152 30.5543 52.5087 25.6702 43.0001 25.6702ZM30.9438 36.8015C32.0148 29.5158 40.3389 28.9154 43.0001 28.9154C45.6612 28.9154 53.9853 29.5158 55.0563 36.8015H30.9438Z" fill="white"/>
<path d="M43 8.63232C38.7432 8.63232 35.2925 12.0831 35.2925 16.3399C35.3014 20.593 38.7469 24.0385 43 24.0474C47.2568 24.0474 50.7076 20.5967 50.7076 16.3399C50.7076 12.0831 47.2568 8.63232 43 8.63232ZM43 20.8021C40.5356 20.8021 38.5378 18.8043 38.5378 16.3399C38.5378 13.8755 40.5356 11.8776 43 11.8776C45.4644 11.8776 47.4623 13.8755 47.4623 16.3399C47.4623 18.8043 45.4644 20.8021 43 20.8021Z" fill="white"/>
<path d="M15.4151 62.991C5.90641 62.991 0 67.8589 0 75.7449C0 76.641 0.726538 77.3676 1.62264 77.3676H29.2075C30.1037 77.3676 30.8302 76.641 30.8302 75.7449C30.8302 67.8751 24.9238 62.991 15.4151 62.991ZM3.35887 74.1223C4.42981 66.8366 12.7377 66.2362 15.4151 66.2362C18.0925 66.2362 26.4004 66.8366 27.4713 74.1223H3.35887Z" fill="white"/>
<path d="M15.4151 45.9531C11.1583 45.9531 7.70752 49.4039 7.70752 53.6607C7.71644 57.9138 11.1619 61.3593 15.4151 61.3682C19.6719 61.3682 23.1226 57.9175 23.1226 53.6607C23.1226 49.4039 19.6719 45.9531 15.4151 45.9531ZM15.4151 58.1229C12.9507 58.1229 10.9528 56.1251 10.9528 53.6607C10.9528 51.1963 12.9507 49.1984 15.4151 49.1984C17.8795 49.1984 19.8773 51.1963 19.8773 53.6607C19.8773 56.1251 17.8795 58.1229 15.4151 58.1229Z" fill="white"/>
<path d="M70.585 62.991C61.0763 62.991 55.1699 67.8589 55.1699 75.7449C55.1699 76.641 55.8965 77.3676 56.7926 77.3676H84.3775C85.2736 77.3676 86.0001 76.641 86.0001 75.7449C86.0001 67.8751 80.0937 62.991 70.585 62.991ZM58.5288 74.1223C59.5997 66.8366 67.9077 66.2362 70.585 66.2362C73.2624 66.2362 81.5703 66.8366 82.6412 74.1223H58.5288Z" fill="white"/>
<path d="M70.585 45.9531C66.3282 45.9531 62.8774 49.4039 62.8774 53.6607C62.8864 57.9138 66.3318 61.3593 70.585 61.3682C74.8418 61.3682 78.2925 57.9175 78.2925 53.6607C78.2925 49.4039 74.8418 45.9531 70.585 45.9531ZM70.585 58.1229C68.1206 58.1229 66.1227 56.1251 66.1227 53.6607C66.1227 51.1963 68.1206 49.1984 70.585 49.1984C73.0494 49.1984 75.0473 51.1963 75.0473 53.6607C75.0473 56.1251 73.0494 58.1229 70.585 58.1229Z" fill="white"/>
<path d="M51.389 60.1838L44.6225 53.3849V43.8114C44.6225 42.9153 43.896 42.1887 42.9999 42.1887C42.1038 42.1887 41.3773 42.9153 41.3773 43.8114V53.3849L34.6109 60.1514C33.9701 60.7832 33.9628 61.8148 34.5946 62.4555C35.2264 63.0962 36.258 63.1035 36.8988 62.4717L42.9999 56.3544L49.101 62.4717C49.7817 63.0547 50.806 62.9754 51.389 62.2947C51.9092 61.6872 51.9092 60.7913 51.389 60.1838Z" fill="white"/>
</g>
<defs>
<clipPath id="clip0">
<rect width="86" height="86" fill="white"/>
</clipPath>
</defs>
</svg>
