<svg width="400" height="400" viewBox="0 0 400 400" fill="none" xmlns="http://www.w3.org/2000/svg">
<path d="M64.5161 154.838C85.865 154.838 103.226 137.478 103.226 116.129C103.226 94.7798 85.865 77.4191 64.5161 77.4191C60.9469 77.4191 58.0645 80.3015 58.0645 83.8707V109.677H32.258C28.6888 109.677 25.8064 112.56 25.8064 116.129C25.8064 137.478 43.1672 154.838 64.5161 154.838ZM64.5161 122.58C68.0852 122.58 70.9677 119.698 70.9677 116.129V91.1413C82.091 94.0049 90.3225 104.13 90.3225 116.129C90.3225 130.361 78.7487 141.935 64.5161 141.935C52.517 141.935 42.3922 133.704 39.5287 122.58H64.5161Z" fill="white"/>
<path d="M129.033 83.8708H232.259V96.7741H129.033V83.8708Z" fill="white"/>
<path d="M129.033 109.678H232.259V122.581H129.033V109.678Z" fill="white"/>
<path d="M129.033 135.483H232.259V148.387H129.033V135.483Z" fill="white"/>
<path d="M129.032 180.645H32.258C28.6888 180.645 25.8064 183.528 25.8064 187.097V225.807C25.8064 229.376 28.6888 232.258 32.258 232.258H129.032C132.601 232.258 135.484 229.376 135.484 225.807V187.097C135.484 183.528 132.601 180.645 129.032 180.645ZM122.581 219.355H38.7096V193.549H122.581V219.355Z" fill="white"/>
<path d="M129.032 245.161H32.258C28.6888 245.161 25.8064 248.044 25.8064 251.613V367.742C25.8064 371.311 28.6888 374.193 32.258 374.193H129.032C132.601 374.193 135.484 371.311 135.484 367.742V251.613C135.484 248.044 132.601 245.161 129.032 245.161ZM122.581 258.064V335.484H38.7096V258.064H122.581ZM38.7096 361.29V348.387H122.581V361.29H38.7096Z" fill="white"/>
<path d="M161.29 258.064H206.451V245.161H154.839C151.269 245.161 148.387 248.044 148.387 251.613V367.742C148.387 371.311 151.269 374.193 154.839 374.193H206.451V361.29H161.29V348.387H206.451V335.484H161.29V258.064Z" fill="white"/>
<path d="M322.581 201.947V6.45161C322.581 2.88243 319.698 0 316.129 0H58.0645C54.4953 0 51.6129 2.88243 51.6129 6.45161V25.8065H32.2581C28.6889 25.8065 25.8065 28.6889 25.8065 32.2581V51.6129H6.45161C2.88243 51.6129 0 54.4953 0 58.0645V393.548C0 397.118 2.88243 400 6.45161 400H264.516C268.085 400 270.968 397.118 270.968 393.548V387.903C281.077 391.491 291.904 393.548 303.226 393.548C356.587 393.548 400 350.135 400 296.774C400 250.038 366.702 210.941 322.581 201.947ZM64.5161 12.9032H309.677V200.328C307.535 200.186 305.406 200 303.226 200C301.046 200 298.916 200.186 296.774 200.328V32.2581C296.774 28.6889 293.892 25.8065 290.323 25.8065H64.5161V12.9032ZM38.7097 38.7097H283.871V201.947C279.439 202.851 275.161 204.155 270.968 205.645V58.0645C270.968 54.4953 268.085 51.6129 264.516 51.6129H38.7097V38.7097ZM258.065 387.097H12.9032V64.5161H258.065V211.246C227.407 227.498 206.452 259.715 206.452 296.774C206.452 333.833 227.407 366.044 258.065 382.302V387.097ZM303.226 380.645C256.981 380.645 219.355 343.019 219.355 296.774C219.355 250.529 256.981 212.903 303.226 212.903C349.471 212.903 387.097 250.529 387.097 296.774C387.097 343.019 349.471 380.645 303.226 380.645Z" fill="white"/>
<path d="M303.226 225.807C264.097 225.807 232.258 257.646 232.258 296.774H245.162C245.162 264.756 271.207 238.71 303.226 238.71C335.245 238.71 361.291 264.756 361.291 296.774H374.194C374.194 257.646 342.355 225.807 303.226 225.807Z" fill="white"/>
<path d="M296.775 300.555L259.955 337.374L269.078 346.497L307.788 307.788C309.001 306.581 309.678 304.943 309.678 303.226V264.517H296.775V300.555Z" fill="white"/>
<path d="M161.291 180.645H232.259V193.549H161.291V180.645Z" fill="white"/>
<path d="M161.291 206.451H232.259V219.355H161.291V206.451Z" fill="white"/>
</svg>
