<svg width="472" height="472" viewBox="0 0 472 472" fill="none" xmlns="http://www.w3.org/2000/svg">
<path d="M121.807 228.387C71.4305 228.387 30.4517 269.366 30.4517 319.742C30.4517 370.118 71.4305 411.097 121.807 411.097C172.183 411.097 213.161 370.118 213.161 319.742C213.161 269.366 172.183 228.387 121.807 228.387ZM197.549 312.129H129.419V244C165.328 247.58 193.969 276.221 197.549 312.129ZM45.6775 319.742C45.6775 280.34 75.7797 247.832 114.194 244V395.492C75.7797 391.652 45.6775 359.145 45.6775 319.742ZM129.419 395.485V327.355H197.549C193.969 363.264 165.328 391.905 129.419 395.485Z" fill="white"/>
<path d="M357.457 218.804L372.842 225.633C376.946 227.458 381.306 228.387 385.808 228.387C394.332 228.387 402.35 225.06 408.379 219.031L418.709 208.701C423.62 203.79 426.322 197.267 426.322 190.323C426.322 183.379 423.62 176.848 418.709 171.945L406.636 159.871C396.822 150.058 379.693 150.058 369.88 159.871L365.014 164.737C363.241 166.51 360.88 167.484 358.371 167.484H357.241C354.732 167.484 352.371 166.51 350.598 164.737L345.335 159.477C343.554 157.693 342.58 155.333 342.58 152.823C342.58 149.95 343.866 147.274 346.104 145.482L350.483 141.988C355.133 138.267 357.806 132.709 357.806 126.74C357.806 121.595 355.728 116.569 352.089 112.937L338.12 98.968C328.306 89.1545 311.177 89.1545 301.363 98.968L291.033 109.298C285.004 115.328 281.677 123.346 281.677 132.048C281.677 136.386 282.543 140.62 284.257 144.616C298.479 177.792 324.477 204.14 357.457 218.804ZM301.798 120.063L312.129 109.733C314.169 107.7 316.864 106.581 319.742 106.581C322.619 106.581 325.314 107.7 327.354 109.733L341.324 123.703C342.116 124.502 342.58 125.613 342.58 126.74C342.58 128.055 341.993 129.275 340.974 130.089L336.603 133.583C330.719 138.289 327.354 145.3 327.354 152.823C327.354 159.399 329.912 165.588 334.562 170.231L339.826 175.491C344.476 180.153 350.665 182.71 357.241 182.71H358.371C364.947 182.71 371.136 180.153 375.779 175.502L380.645 170.636C384.719 166.577 391.796 166.577 395.871 170.636L407.944 182.71C409.977 184.751 411.096 187.446 411.096 190.323C411.096 193.2 409.977 195.895 407.944 197.936L397.614 208.266C392.804 213.076 385.258 214.492 379.031 211.716L363.646 204.887C334.183 191.791 310.958 168.254 298.26 138.624C297.36 136.538 296.903 134.323 296.903 131.869C296.903 127.409 298.646 123.223 301.798 120.063V120.063Z" fill="white"/>
<path d="M390.444 258.839H449.161C461.752 258.839 472 248.59 472 236V83.7419C472 71.1516 461.752 60.9032 449.161 60.9032H365.419V0H65.3639L0 65.3639V441.548H188.014L233.692 472H449.161C461.752 472 472 461.752 472 449.161V418.71C472 406.119 461.752 395.871 449.161 395.871H365.419V274.485L390.444 258.839ZM456.774 83.7419V236C456.774 240.2 453.362 243.613 449.161 243.613H386.072L334.968 275.548V243.613H251.226C247.025 243.613 243.613 240.2 243.613 236V83.7419C243.613 79.5415 247.025 76.129 251.226 76.129H449.161C453.362 76.129 456.774 79.5415 456.774 83.7419V83.7419ZM60.9032 25.9909V60.9032H25.9909L60.9032 25.9909ZM243.613 441.548H365.419V456.774H243.613V441.548ZM380.645 411.097H395.871V456.774H380.645V411.097ZM365.419 426.323H243.613V411.097H365.419V426.323ZM228.387 450.165L204.05 433.935L228.387 417.706V450.165ZM456.774 418.71V449.161C456.774 453.362 453.362 456.774 449.161 456.774H411.097V411.097H449.161C453.362 411.097 456.774 414.509 456.774 418.71ZM350.194 395.871H233.692L188.014 426.323H15.2258V76.129H76.129V15.2258H350.194V60.9032H251.226C238.636 60.9032 228.387 71.1516 228.387 83.7419V236C228.387 248.59 238.636 258.839 251.226 258.839H319.742V303.033L350.194 284.001V395.871Z" fill="white"/>
<path d="M190.323 91.3554H175.097V182.71H159.871V76.1296H144.645V182.71H129.419V137.033H114.194V182.71H98.9678V106.581H83.742V182.71H68.5162V121.807H53.2904V182.71H30.4517V197.936H213.161V182.71H190.323V91.3554Z" fill="white"/>
</svg>
