<svg width="86" height="86" viewBox="0 0 86 86" fill="none" xmlns="http://www.w3.org/2000/svg">
<g clip-path="url(#clip0)">
<path d="M84.3902 11.7051C84.3212 11.7047 84.2523 11.7085 84.1837 11.7168V11.7006L49.6992 15.8855L15.2146 11.7006C14.3253 11.5931 13.5171 12.2269 13.4096 13.1162C13.4013 13.1848 13.3975 13.2537 13.3979 13.3226V36.9882C8.42593 42.4514 8.20513 50.7322 12.8788 56.4527L0.567544 68.7316C-0.112902 69.3143 -0.192179 70.3382 0.390539 71.0186C0.973257 71.6991 1.99717 71.7784 2.67762 71.1956C2.74108 71.1413 2.80028 71.0821 2.85462 71.0186L13.3817 60.4916V68.4882C13.3758 69.3133 13.9899 70.0113 14.8091 70.1103L49.537 74.3114H49.9262L84.573 70.1103C85.3922 70.0113 86.0063 69.3133 86.0004 68.4882V13.3389C86.0067 12.4431 85.2859 11.7115 84.3902 11.7051ZM16.0536 38.8578C16.0872 38.8238 16.1211 38.7897 16.1554 38.756C20.7062 34.2105 28.0802 34.2149 32.6256 38.7658C37.1709 43.3166 37.1667 50.6906 32.6158 55.236C28.0688 59.7777 20.7021 59.7777 16.1552 55.236C11.6045 50.7415 11.5589 43.4087 16.0536 38.8578ZM48.0769 70.8726L16.6418 67.0608V59.6806C23.6561 63.9733 32.8224 61.7671 37.1152 54.7528C41.4079 47.7385 39.2017 38.5721 32.1874 34.2794C27.4168 31.3597 21.4124 31.3597 16.6418 34.2794V15.1393L48.0769 18.9511V70.8726ZM82.7562 67.0608L51.321 70.8726V18.9673L82.7562 15.1555V67.0608Z" fill="white"/>
<path d="M43.2431 27.5642L20.5345 24.8067C19.6388 24.6993 18.8253 25.3383 18.7178 26.2341C18.6104 27.1299 19.2495 27.9433 20.1452 28.0508H20.1939L42.9025 30.8083H43.0485C43.9442 30.862 44.7141 30.1793 44.7678 29.2835C44.8216 28.3876 44.1389 27.6179 43.2431 27.5642Z" fill="white"/>
<path d="M80.0305 26.2341C79.923 25.3383 79.1096 24.6993 78.2138 24.8067L55.5052 27.5642C54.6094 27.6179 53.9268 28.3878 53.9805 29.2835C54.0342 30.1793 54.8041 30.862 55.6999 30.8083H55.8945L78.6031 28.0508C79.4989 27.9431 80.1379 27.1299 80.0305 26.2341Z" fill="white"/>
<path d="M80.0305 39.8916C79.923 38.9958 79.1096 38.3567 78.2138 38.4642L55.5052 41.2217C54.6094 41.2754 53.9268 42.0453 53.9805 42.941C54.0342 43.8368 54.8041 44.5195 55.6999 44.4658H55.8945L78.6031 41.7083C79.4989 41.6008 80.1379 40.7874 80.0305 39.8916Z" fill="white"/>
<path d="M80.0305 53.5493C79.923 52.6535 79.1096 52.0144 78.2138 52.1219L55.5052 54.8794C54.6094 54.9331 53.9268 55.703 53.9805 56.5987C54.0342 57.4945 54.8041 58.1772 55.6999 58.1234H55.8945L78.6031 55.366C79.4989 55.2585 80.1379 54.4451 80.0305 53.5493Z" fill="white"/>
</g>
<defs>
<clipPath id="clip0">
<rect width="86" height="86" fill="white"/>
</clipPath>
</defs>
</svg>
