<svg width="549" height="549" viewBox="0 0 549 549" fill="none" xmlns="http://www.w3.org/2000/svg">
<path d="M173.85 466.66H155.55V484.96H173.85V466.66Z" fill="white"/>
<path d="M210.45 466.66H192.15V484.96H210.45V466.66Z" fill="white"/>
<path d="M173.85 356.859H155.55V375.159H173.85V356.859Z" fill="white"/>
<path d="M210.45 356.859H192.15V375.159H210.45V356.859Z" fill="white"/>
<path d="M430.05 137.26C424.756 137.263 419.468 137.617 414.22 138.322C389.564 56.0655 302.892 9.37186 220.636 34.0288C157.911 52.8309 113.689 108.918 110.038 174.299C106.918 174.007 103.779 173.86 100.65 173.86C45.0626 173.86 0 218.923 0 274.51C0 330.098 45.0626 375.16 100.65 375.16H118.95V402.61C118.95 407.663 123.047 411.76 128.1 411.76H146.4V430.06H128.1C123.047 430.06 118.95 434.157 118.95 439.21V512.41C118.95 517.463 123.047 521.56 128.1 521.56H420.9C425.953 521.56 430.05 517.463 430.05 512.41V439.21C430.05 434.157 425.953 430.06 420.9 430.06H402.6V411.76H420.9C425.953 411.76 430.05 407.663 430.05 402.61V375.16C495.745 375.16 549 321.905 549 256.21C549 190.516 495.745 137.26 430.05 137.26ZM411.75 448.36V503.26H137.25V448.36H411.75ZM164.7 430.06V411.76H384.3V430.06H164.7ZM411.75 393.46H137.25V338.56H411.75V393.46ZM450.629 354.728C443.861 356.144 436.965 356.858 430.05 356.86V329.41C430.05 324.357 425.953 320.26 420.9 320.26H329.4V237.91H413.434C418.487 252.204 434.171 259.694 448.463 254.64C462.757 249.587 470.247 233.903 465.193 219.61C460.14 205.317 444.456 197.826 430.163 202.881C422.346 205.644 416.197 211.794 413.434 219.61H320.25C315.197 219.61 311.1 223.707 311.1 228.76V320.26H265.35V146.41H303.634C308.687 160.704 324.371 168.194 338.663 163.14C352.957 158.087 360.447 142.403 355.393 128.11C350.34 113.817 334.656 106.326 320.363 111.381C312.546 114.144 306.397 120.294 303.634 128.11H256.2C251.147 128.11 247.05 132.207 247.05 137.26V320.26H201.3V256.21C201.3 251.157 197.203 247.06 192.15 247.06H144.716C139.663 232.767 123.979 225.276 109.687 230.331C95.3945 235.385 87.9029 251.068 92.9571 265.36C98.0114 279.653 113.694 287.144 127.987 282.09C135.804 279.327 141.953 273.177 144.716 265.36H183V320.26H128.1C123.047 320.26 118.95 324.357 118.95 329.41V356.86H100.65C55.1688 356.86 18.3 319.99 18.3 274.51C18.3 229.029 55.1688 192.16 100.65 192.16C106.219 192.165 111.773 192.725 117.23 193.835C119.943 194.365 122.751 193.657 124.888 191.904C127.018 190.136 128.233 187.498 128.191 184.73C128.191 184.547 128.109 183.193 128.1 183.01C128.05 107.249 189.424 45.7923 265.185 45.742C328.634 45.6997 383.831 89.1747 398.656 150.866C399.809 155.676 404.574 158.699 409.417 157.692C463.827 146.312 517.16 181.194 528.541 235.604C539.921 290.015 505.039 343.348 450.629 354.728ZM430.05 228.76C430.05 223.707 434.147 219.61 439.2 219.61C444.253 219.61 448.35 223.707 448.35 228.76C448.35 233.813 444.253 237.91 439.2 237.91C434.147 237.91 430.05 233.813 430.05 228.76ZM320.25 137.26C320.25 132.207 324.347 128.11 329.4 128.11C334.453 128.11 338.55 132.207 338.55 137.26C338.55 142.313 334.453 146.41 329.4 146.41C324.347 146.41 320.25 142.313 320.25 137.26ZM128.1 256.21C128.1 261.263 124.003 265.36 118.95 265.36C113.897 265.36 109.8 261.263 109.8 256.21C109.8 251.157 113.897 247.06 118.95 247.06C124.003 247.06 128.1 251.156 128.1 256.21Z" fill="white"/>
</svg>
