<svg width="685" height="685" viewBox="0 0 685 685" fill="none" xmlns="http://www.w3.org/2000/svg">
<path d="M673.583 593.667H662.167V239.75C662.167 233.445 657.055 228.333 650.75 228.333H34.25C27.9451 228.333 22.8333 233.445 22.8333 239.75V593.667H11.4167C5.11181 593.667 0 598.778 0 605.083V627.917C0.0371042 659.427 25.5733 684.963 57.0833 685H627.917C659.427 684.963 684.963 659.427 685 627.917V605.083C685 598.778 679.888 593.667 673.583 593.667ZM45.6667 251.167H639.333V593.667H433.833C430.804 593.682 427.901 594.888 425.75 597.023L406.273 616.5H278.727L259.25 597.023C257.099 594.888 254.196 593.682 251.167 593.667H45.6667V251.167ZM662.167 627.917C662.167 646.833 646.833 662.167 627.917 662.167H57.0833C38.1673 662.167 22.8333 646.833 22.8333 627.917V616.5H246.44L265.928 635.988C268.069 638.129 270.972 639.333 274 639.333H411C414.028 639.333 416.931 638.129 419.072 635.988L438.56 616.5H662.167V627.917Z" fill="white"/>
<path d="M252.057 494.17L389.685 368.005L526.685 447.796L627.916 346.541V262.583H57.083V525.68L171.535 436.63L252.057 494.17ZM79.9163 478.986V285.417H605.083V337.088L522.986 419.209L386.648 339.828L250.276 464.83L170.964 408.18L79.9163 478.986Z" fill="white"/>
<path d="M159.834 216.917C166.139 216.917 171.25 211.805 171.25 205.5V180.92L210.923 174.298C215.481 173.532 219.128 170.093 220.159 165.587C223.228 152.158 228.526 139.338 235.834 127.661C238.299 123.737 238.145 118.711 235.446 114.943L212.076 82.2799L230.697 63.6593L263.36 87.0293C267.128 89.7279 272.152 89.882 276.078 87.4174C287.742 80.1136 300.546 74.8148 313.959 71.7423C318.464 70.7106 321.903 67.0644 322.67 62.5063L329.337 22.8333H355.664L362.285 62.5063C363.052 67.0644 366.491 70.7106 370.996 71.7423C384.425 74.8106 397.246 80.1093 408.923 87.4174C412.847 89.882 417.873 89.7279 421.641 87.0293L454.304 63.6593L472.924 82.2799L449.555 114.943C446.856 118.711 446.702 123.735 449.166 127.661C456.47 139.323 461.769 152.129 464.841 165.542C465.873 170.047 469.519 173.486 474.078 174.253L513.75 180.874V205.5C513.75 211.805 518.862 216.917 525.167 216.917C531.472 216.917 536.584 211.805 536.584 205.5V171.25C536.582 165.673 532.551 160.914 527.051 159.993L485.209 152.983C482.153 142.259 477.886 131.917 472.491 122.158L497.162 87.6686C500.409 83.1248 499.892 76.8984 495.94 72.9525L463.631 40.6319C459.683 36.6832 453.456 36.1723 448.915 39.4218L414.425 64.1274C404.668 58.7202 394.326 54.4418 383.6 51.375L376.602 9.49868C375.666 4.00726 370.904 -0.00712592 365.334 9.4971e-06H319.667C314.09 0.00143658 309.331 4.03295 308.41 9.53293L301.4 51.375C290.676 54.4304 280.334 58.6974 270.575 64.0932L236.12 39.456C231.579 36.2065 225.353 36.7174 221.404 40.6662L189.083 72.9868C185.134 76.9355 184.624 83.1619 187.873 87.7028L212.544 122.158C207.137 131.915 202.859 142.257 199.792 152.983L157.916 159.982C152.424 160.918 148.41 165.68 148.417 171.25V205.5C148.417 211.805 153.529 216.917 159.834 216.917Z" fill="white"/>
<path d="M411 194.083C411 200.388 416.112 205.5 422.417 205.5C428.722 205.5 433.834 200.388 433.834 194.083C433.834 143.642 392.942 102.75 342.5 102.75C292.059 102.75 251.167 143.642 251.167 194.083C251.167 200.388 256.279 205.5 262.584 205.5C268.889 205.5 274 200.388 274 194.083C274 156.251 304.668 125.583 342.5 125.583C380.332 125.583 411 156.251 411 194.083Z" fill="white"/>
<path d="M296.833 194.083C296.833 200.388 301.945 205.5 308.25 205.5C314.555 205.5 319.666 200.388 319.666 194.083C319.666 181.472 329.889 171.25 342.5 171.25C355.111 171.25 365.333 181.472 365.333 194.083C365.333 200.388 370.445 205.5 376.75 205.5C383.055 205.5 388.166 200.388 388.166 194.083C388.166 168.863 367.721 148.417 342.5 148.417C317.279 148.417 296.833 168.863 296.833 194.083Z" fill="white"/>
<path d="M627.916 570.833V559.417V388.167H605.083V559.417H582.25V433.833H559.416V559.417H536.583V468.083H513.75V559.417H490.916V445.25H468.083V559.417H445.25V422.417H422.416V559.417H399.583V399.583H376.75V559.417H353.916V445.25H331.083V559.417H308.25V490.917H285.416V559.417H262.583V513.75H239.75V559.417H216.916V490.917H194.083V559.417H171.25V479.5H148.416V559.417H125.583V513.75H102.75V559.417H79.9163V548H57.083V559.417V570.833V582.25H627.916V570.833Z" fill="white"/>
</svg>
