<svg width="86" height="86" viewBox="0 0 86 86" fill="none" xmlns="http://www.w3.org/2000/svg">
<path d="M50.733 43.0079C50.7243 38.7479 47.2684 35.2991 43.0083 35.2991C38.7422 35.2991 35.2837 38.7576 35.2837 43.0237C35.2837 47.2899 38.7422 50.7484 43.0083 50.7484C47.2745 50.7484 50.733 47.2899 50.733 43.0237C50.733 43.0184 50.733 43.0132 50.733 43.0079ZM43.0083 47.5667C40.4905 47.5667 38.4495 45.5257 38.4495 43.0079C38.4495 40.4901 40.4905 38.4491 43.0083 38.4491C45.5262 38.4491 47.5671 40.4901 47.5671 43.0079C47.5671 45.5257 45.5262 47.5667 43.0083 47.5667Z" fill="white"/>
<path d="M84.4171 41.425H76.7558C75.9196 24.0188 61.997 10.0963 44.5908 9.26008V1.58292C44.5908 0.708752 43.8821 0 43.0079 0C42.1337 0 41.425 0.708752 41.425 1.58292V9.24425C24.0131 10.081 10.0883 24.0127 9.26008 41.425H1.58292C0.708752 41.425 0 42.1337 0 43.0079C0 43.8821 0.708752 44.5908 1.58292 44.5908H9.24425C10.081 62.0027 24.0127 75.9275 41.425 76.7558V84.4171C41.425 85.2912 42.1337 86 43.0079 86C43.8821 86 44.5908 85.2912 44.5908 84.4171V76.7558C61.997 75.9196 75.9196 61.997 76.7558 44.5908H84.4171C85.2912 44.5908 86 43.8821 86 43.0079C86 42.1337 85.2912 41.425 84.4171 41.425ZM66.0869 44.5908H73.5899C72.7617 60.2506 60.2506 72.7617 44.5908 73.5899V66.0869C44.5908 65.2127 43.8821 64.504 43.0079 64.504C42.1337 64.504 41.425 65.2127 41.425 66.0869V73.5899C25.7652 72.7617 13.2542 60.2506 12.4259 44.5908H19.929C20.8031 44.5908 21.5119 43.8821 21.5119 43.0079C21.5119 42.1337 20.8031 41.425 19.929 41.425H12.4259C13.2542 25.7652 25.7652 13.2542 41.425 12.4259V19.929C41.425 20.8031 42.1337 21.5119 43.0079 21.5119C43.8821 21.5119 44.5908 20.8031 44.5908 19.929V12.4259C60.2506 13.2542 72.7617 25.7652 73.5899 41.425H66.0869C65.2127 41.425 64.504 42.1337 64.504 43.0079C64.504 43.8821 65.2127 44.5908 66.0869 44.5908Z" fill="white"/>
</svg>
