<svg width="110" height="43" viewBox="0 0 110 43" fill="none" xmlns="http://www.w3.org/2000/svg">
<path fill-rule="evenodd" clip-rule="evenodd" d="M44.7559 42.6439V14.0479H53.0484V42.6439H44.7559ZM48.9021 8.84244C46.6649 8.84244 45.0212 7.18816 45.0212 4.86182C45.0212 2.53548 46.6649 0.932892 48.9021 0.932892C51.185 0.932892 52.783 2.53548 52.783 4.86182C52.783 7.18816 51.185 8.84244 48.9021 8.84244ZM81.5415 8.84244C79.3043 8.84244 77.6606 7.18816 77.6606 4.86182C77.6606 2.53548 79.3043 0.932892 81.5415 0.932892C83.8244 0.932892 85.4225 2.53548 85.4225 4.86182C85.4225 7.18816 83.8244 8.84244 81.5415 8.84244ZM68.7969 42.6439C61.8528 42.6439 59.143 38.2844 59.143 31.7734V20.3933H55.304V13.912L59.5946 13.8822L60.5543 6.40873H67.442V13.8822H74.1602V20.3933H67.442V31.6601C67.442 34.8307 68.8533 36.1329 71.0551 36.1329C71.9584 36.1329 72.9746 35.8498 73.7085 35.5667L75.007 41.6248C73.5392 42.0778 71.5068 42.6439 68.7969 42.6439ZM77.3953 42.6439V14.0479H85.6878V42.6439H77.3953ZM98.2517 42.6439C94.7933 42.6439 90.8028 41.1041 88.1424 38.8495L91.6541 33.7902C94.0484 35.6599 96.2299 36.6498 98.4646 36.6498C100.806 36.6498 101.817 35.7699 101.817 34.3401C101.817 32.5253 99.1562 31.7004 96.4427 30.6006C93.2503 29.3358 89.4726 27.0811 89.4726 22.5717C89.4726 17.5124 93.4631 14.0479 99.5819 14.0479C103.626 14.0479 106.605 15.7526 108.893 17.5124L105.381 22.3517C103.466 20.9219 101.657 20.042 99.7947 20.042C97.7729 20.042 96.8151 20.8119 96.8151 22.1868C96.8151 23.9465 99.2627 24.6064 101.976 25.6513C105.328 26.9161 109.106 28.8408 109.106 33.8451C109.106 38.7945 105.328 42.6439 98.2517 42.6439Z" fill="#3293E6"/>
<path d="M32.5505 15.3177C33.3021 16.6012 33.8497 17.9931 34.1621 19.442C33.8648 17.9687 33.3081 16.5796 32.5505 15.3177ZM20.1554 42.0979C19.3518 39.8062 18.7437 38.0717 18.3311 36.8942C18.113 36.2721 17.9495 35.8054 17.8406 35.4943C17.7657 35.2804 17.7657 35.2804 17.7181 35.1442C17.6994 35.0906 17.6994 35.0906 17.6875 35.0563C17.6827 35.0427 17.6827 35.0427 17.6796 35.0336L17.6771 35.0264L17.6755 35.0215C17.6746 35.0189 17.6746 35.0189 17.6717 35.0091L18.0576 34.5754C18.7673 34.7172 19.5242 34.7774 20.4576 34.7774C21.2724 34.7774 21.9306 34.7471 22.5363 34.6855C27.6426 33.895 31.705 30.8181 33.2082 26.0575C35.3545 19.26 31.4451 11.9333 24.5943 9.47173C22.8607 8.95234 21.3421 8.85743 17.6754 8.87916C17.3108 8.88132 17.07 8.88258 16.8579 8.8832C17.3754 22.568 17.6722 30.7185 17.7484 33.3372L17.5158 33.3443L17.0484 33.5175L7.63127 6.91302C5.53708 8.81299 3.86 11.1453 2.70232 13.7713C0.306344 19.2062 0.330463 25.4366 2.90735 30.8735L2.30495 31.1782C0.378376 27.1134 -0.168324 22.6187 0.612952 18.3167L0.548274 18.3048C1.37753 13.4653 3.81462 9.20082 7.34955 6.11713L5.28808 0.293243L20.4022 1.09062C28.076 0.930879 35.4822 5.22893 39.0406 12.7367C39.2926 13.2683 39.5057 13.8131 39.68 14.3711C41.02 17.8269 41.4722 21.6879 40.8002 25.61C38.8592 36.9377 28.2751 44.4848 17.1603 42.4678L17.2751 41.792C18.2413 41.9673 19.2033 42.0679 20.1554 42.0979Z" fill="#3293E6"/>
</svg>
