<svg width="701" height="425" viewBox="0 0 701 425" fill="none" xmlns="http://www.w3.org/2000/svg">
<g clip-path="url(#clip0)">
<path d="M614.533 344.125H556.21C557.552 341.427 558.248 338.454 558.243 335.441V69.9413C558.243 64.7642 556.186 59.7991 552.524 56.1383C548.862 52.4775 543.896 50.4209 538.717 50.4209H87.2624C82.0838 50.4209 77.1173 52.4775 73.4555 56.1383C69.7937 59.7991 67.7365 64.7642 67.7365 69.9413V335.45C67.7318 338.463 68.4279 341.436 69.7699 344.134H9.3859C8.70531 344.134 8.03142 344.269 7.40298 344.53C6.77453 344.791 6.20393 345.174 5.72394 345.656C5.24396 346.139 4.86407 346.711 4.6061 347.341C4.34814 347.971 4.21719 348.645 4.22077 349.325V353.491C4.22077 361.149 7.26398 368.494 12.6809 373.91C18.0979 379.325 25.4449 382.368 33.1056 382.368H590.813C598.474 382.368 605.821 379.325 611.238 373.91C616.655 368.494 619.698 361.149 619.698 353.491V349.325C619.703 348.644 619.573 347.969 619.315 347.338C619.058 346.707 618.678 346.134 618.198 345.651C617.718 345.167 617.147 344.784 616.518 344.522C615.889 344.26 615.214 344.125 614.533 344.125ZM255.161 360.642L250.132 354.97H374.295L368.758 360.651L255.161 360.642Z" fill="url(#paint0_linear)"/>
<path d="M531.555 54.178H94.3791C82.7179 54.178 73.2646 63.6286 73.2646 75.2865V330.722C73.2646 342.379 82.7179 351.83 94.3791 351.83H531.555C543.216 351.83 552.669 342.379 552.669 330.722V75.2865C552.669 63.6286 543.216 54.178 531.555 54.178Z" fill="#535461"/>
<path d="M541.567 97.5657H83.3589V340.731H541.567V97.5657Z" fill="white"/>
<path d="M312.468 80.4139C314.699 80.4139 316.507 78.6059 316.507 76.3755C316.507 74.1452 314.699 72.3371 312.468 72.3371C310.237 72.3371 308.428 74.1452 308.428 76.3755C308.428 78.6059 310.237 80.4139 312.468 80.4139Z" fill="white"/>
<path d="M383.209 341.23L367.469 357.375H256.486L242.262 341.23H16.2395C14.9009 341.23 13.6172 341.762 12.6707 342.708C11.7241 343.655 11.1924 344.938 11.1924 346.276V350.342C11.1924 357.827 14.1667 365.006 19.4611 370.299C24.7555 375.592 31.9362 378.565 39.4236 378.565H584.495C588.203 378.565 591.874 377.835 595.299 376.417C598.724 374.998 601.836 372.92 604.458 370.299C607.079 367.678 609.159 364.567 610.578 361.142C611.996 357.718 612.727 354.048 612.727 350.342V346.276C612.727 344.938 612.195 343.655 611.248 342.708C610.302 341.762 609.018 341.23 607.679 341.23H383.209Z" fill="#535461"/>
<path d="M141.9 112.703V319.541H484.033" stroke="#535461" stroke-width="2" stroke-miterlimit="10"/>
<path opacity="0.5" d="M207.495 256.987H172.174V311.473H207.495V256.987Z" fill="#3293E6"/>
<path opacity="0.7" d="M268.051 208.553H232.73V311.473H268.051V208.553Z" fill="#3293E6"/>
<path opacity="0.5" d="M328.607 237.811H293.287V311.464H328.607V237.811Z" fill="#3293E6"/>
<path opacity="0.8" d="M389.164 192.409H353.843V311.473H389.164V192.409Z" fill="#3293E6"/>
<path d="M449.721 150.029H414.4V311.464H449.721V150.029Z" fill="#3293E6"/>
<path d="M189.331 223.691L250.895 168.197L311.452 220.66L371 157.098L431.557 131.869" stroke="#535461" stroke-width="2" stroke-miterlimit="10"/>
<path d="M189.33 230.751C193.231 230.751 196.393 227.59 196.393 223.691C196.393 219.791 193.231 216.63 189.33 216.63C185.43 216.63 182.268 219.791 182.268 223.691C182.268 227.59 185.43 230.751 189.33 230.751Z" fill="#3293E6"/>
<path d="M310.443 226.713C314.344 226.713 317.506 223.552 317.506 219.652C317.506 215.753 314.344 212.592 310.443 212.592C306.543 212.592 303.381 215.753 303.381 219.652C303.381 223.552 306.543 226.713 310.443 226.713Z" fill="#3293E6"/>
<path d="M372.007 164.158C375.908 164.158 379.069 160.997 379.069 157.098C379.069 153.199 375.908 150.038 372.007 150.038C368.107 150.038 364.945 153.199 364.945 157.098C364.945 160.997 368.107 164.158 372.007 164.158Z" fill="#3293E6"/>
<path d="M250.895 174.241C254.795 174.241 257.957 171.08 257.957 167.18C257.957 163.281 254.795 160.12 250.895 160.12C246.994 160.12 243.833 163.281 243.833 167.18C243.833 171.08 246.994 174.241 250.895 174.241Z" fill="#3293E6"/>
<path d="M431.556 138.93C435.457 138.93 438.619 135.769 438.619 131.869C438.619 127.97 435.457 124.809 431.556 124.809C427.656 124.809 424.494 127.97 424.494 131.869C424.494 135.769 427.656 138.93 431.556 138.93Z" fill="#3293E6"/>
<path d="M694.306 350.07C690.584 348.844 685.065 347.429 680.689 347.928C676.523 346.412 666.728 342.483 660.038 336.566C660.231 330.748 660.082 324.924 659.593 319.124C656.171 280.219 663.869 254.573 663.869 254.573C663.869 254.573 669.914 235.007 669.252 218.772C669.642 219.507 669.86 219.943 669.86 219.943C670.386 205.94 675.161 191.447 678.738 182.417C678.874 182.378 679.008 182.33 679.137 182.272L683.131 172.798C683.449 172.245 683.702 171.657 683.885 171.046L684.529 169.549L684.339 169.467C684.402 169.222 684.466 168.959 684.529 168.696C687.08 157.906 689.068 132.314 689.068 132.314C695.912 105.379 679.664 88.7538 679.664 88.7538L652.086 65.0317C652.223 65.3405 652.315 65.6676 652.358 66.0027L652.131 65.8031C651.741 64.6869 651.314 63.3528 650.897 61.8282C651.869 61.1299 652.781 60.3497 653.62 59.4959C656.756 56.5356 658.912 52.6887 659.802 48.4698C660.337 45.1705 660.474 41.8191 660.21 38.4872L659.757 27.0436C659.736 24.804 659.508 22.5711 659.076 20.3734C656.997 11.2984 647.692 4.94588 638.352 4.52843C635.38 4.51113 632.409 4.66871 629.456 5.00034C627.04 5.1987 624.615 5.25022 622.194 5.15461C621.918 5.16921 621.645 5.09615 621.413 4.94589C621.203 4.73627 621.082 4.45313 621.077 4.15635C621.029 3.62522 621.09 3.08995 621.255 2.58297C621.421 2.07598 621.687 1.60785 622.039 1.20696C622.405 0.886584 622.831 0.642798 623.292 0.490041L622.629 0.644315C622.956 0.386759 623.324 0.187235 623.719 0.0544434C621.297 0.480043 618.969 1.32458 616.838 2.55008C616.251 2.93573 615.711 3.38962 615.231 3.90225C613.962 5.0157 613.137 6.54943 612.907 8.22198C611.77 7.26201 610.922 6.00538 610.456 4.59196C610.312 4.014 610.312 3.40936 610.456 2.8314C610.293 3.03105 610.135 3.23675 609.984 3.4485C609.984 3.38497 609.984 3.32146 609.984 3.25793C608.23 5.41365 606.988 7.93954 606.353 10.645C606.109 10.352 605.925 10.0134 605.813 9.64885C605.701 9.28429 605.662 8.90106 605.7 8.52145C605.563 8.94798 605.436 9.3745 605.318 9.80102C605.277 9.51817 605.277 9.23083 605.318 8.94797C604.25 12.2197 603.767 15.6544 603.893 19.0939C603.893 22.5242 605.418 27.8694 609.095 29.0764C609.285 29.1399 609.476 29.1853 609.676 29.2307C607.608 32.4416 606.37 36.1152 606.072 39.9223C605.774 43.7293 606.426 47.5508 607.969 51.044C609.511 54.5373 611.897 57.5933 614.912 59.9379C617.927 62.2825 621.477 63.8425 625.244 64.4781C625.304 64.8956 625.362 65.3342 625.416 65.794H625.561C625.661 66.7015 625.743 67.6998 625.797 68.7162C624.87 69.6249 623.854 70.4396 622.765 71.1483C619.679 72.9722 616.237 74.1112 612.671 74.4879C608.414 74.8218 604.276 76.0594 600.534 78.1179C596.132 80.5772 591.275 84.1619 589.75 88.5179C587.209 95.7779 573.211 107.076 563.825 108.483L560.484 108.292L560.239 108.22V108.283L559.422 108.238H559.377H559.159V108.283L558.315 108.238C558.315 108.238 558.233 108.628 558.115 109.318C553.395 107.693 543.364 103.192 530.31 91.3493C515.786 78.1633 496.133 80.7588 488.554 82.4195C488.296 82.4764 488.061 82.6105 487.882 82.804C487.702 82.9975 487.586 83.2412 487.548 83.5025C487.511 83.7638 487.554 84.0304 487.672 84.2666C487.79 84.5027 487.977 84.6973 488.209 84.8244C491.268 86.5032 496.006 88.9444 498.194 89.2167C498.194 89.2167 493.655 93.9629 498.484 96.4767C499.064 96.7568 499.709 96.8719 500.35 96.8094C500.99 96.747 501.601 96.5094 502.116 96.1228C504.458 94.4076 510.966 98.2917 520.398 100.315C520.398 100.315 547.013 127.849 560.23 132.078C560.535 132.679 560.871 133.264 561.238 133.83L562.055 133.766V133.83H562.4L562.499 134.737C562.499 134.737 583.051 133.657 589.732 126.197C590.205 125.774 590.64 125.309 591.03 124.809L583.886 214.652H583.95L583.886 215.505H589.142C589.592 226.555 589.115 237.622 587.717 248.592V307.163C587.717 307.163 587.445 312.317 598.156 319.868C609.387 327.685 620.21 336.072 630.581 344.997L631.879 346.122C629.909 364.045 625.788 397.45 622.348 398.694L624.472 399.066C620.841 403.667 610.529 416.308 607.388 416.644C603.539 417.071 600.97 423.06 607.388 424.34C620.203 426.557 633.379 425.259 645.514 420.583C646.724 420.105 647.739 419.236 648.398 418.114C649.056 416.992 649.319 415.682 649.145 414.393L647.901 404.955C648.137 405.086 648.327 405.286 648.446 405.527C649.299 408.095 648.446 402.106 648.446 402.106C651.962 390.806 654.725 379.286 656.716 367.621L669.424 378.601C669.424 378.601 669.678 378.284 670.123 377.694C673.237 384.754 678.792 399.202 677.549 409.783C675.842 424.303 692.073 411.489 690.375 402.941C688.995 396.026 695.168 366.713 697.574 355.751C697.833 354.567 697.642 353.329 697.037 352.279C696.433 351.229 695.459 350.441 694.306 350.07V350.07Z" fill="url(#paint1_linear)"/>
<path d="M561.492 112.912C561.492 112.912 549.383 110.824 531.427 94.5437C517.221 81.6662 498.058 84.1982 490.669 85.8226C490.417 85.877 490.188 86.0072 490.013 86.1956C489.837 86.384 489.723 86.6216 489.687 86.8765C489.65 87.1314 489.692 87.3914 489.808 87.6216C489.924 87.8517 490.107 88.041 490.333 88.164C493.32 89.7975 497.949 92.1842 500.119 92.4565C500.119 92.4565 495.644 97.0847 500.4 99.5622C500.97 99.8418 501.606 99.9577 502.237 99.8968C502.869 99.8359 503.471 99.6007 503.977 99.2173C506.264 97.5475 512.619 101.341 521.832 103.31C521.832 103.31 557.743 140.463 566.095 134.165L561.492 112.912Z" fill="#FEC3BE"/>
<path d="M623.319 62.3999C623.319 62.3999 626.66 76.5933 623.319 86.6122L638.352 88.6994L651.714 82.0202V73.2537C651.714 73.2537 645.45 59.8952 647.121 44.4495L623.319 62.3999Z" fill="#FEC3BE"/>
<path d="M665.885 370.044C665.885 370.044 676.778 391.334 675.071 405.527C673.365 419.72 689.268 407.197 687.598 398.848C686.246 392.096 692.273 363.455 694.624 352.801C694.879 351.65 694.697 350.445 694.113 349.42C693.529 348.396 692.586 347.625 691.465 347.256C686.445 345.605 678.04 343.581 673.819 346.676C667.582 351.258 665.885 370.044 665.885 370.044Z" fill="#8B416F"/>
<path d="M624.573 393.421C624.573 393.421 610.376 411.789 606.618 412.206C602.86 412.624 600.354 418.468 606.618 419.721C619.124 421.897 631.986 420.642 643.836 416.09C645.022 415.628 646.018 414.781 646.665 413.685C647.312 412.589 647.572 411.308 647.403 410.046L645.007 392.169L624.573 393.421Z" fill="#8B416F"/>
<path d="M601.19 198.48L587.573 200.295C589.442 216.195 589.387 232.261 587.41 248.148V305.321C587.41 305.321 587.147 310.357 597.604 317.681C608.57 325.302 619.138 333.48 629.266 342.183L667.156 374.999C667.156 374.999 682.189 356.631 680.101 345.777C680.101 345.777 655.047 337.846 651.706 324.904C649.791 317.499 640.078 311.292 632.126 307.39C627.127 304.963 623.109 300.899 620.74 295.874C618.37 290.849 617.791 285.165 619.1 279.765C619.564 277.889 620.282 276.085 621.233 274.402C627.914 262.713 637.518 236.414 637.518 236.414L619.145 201.402L601.19 198.48Z" fill="#4D4981"/>
<path opacity="0.05" d="M601.19 198.48L587.573 200.295C589.442 216.195 589.387 232.261 587.41 248.148V305.321C587.41 305.321 587.147 310.357 597.604 317.681C608.57 325.302 619.138 333.48 629.266 342.183L667.156 374.999C667.156 374.999 682.189 356.631 680.101 345.777C680.101 345.777 655.047 337.846 651.706 324.904C649.791 317.499 640.078 311.292 632.126 307.39C627.127 304.963 623.109 300.899 620.74 295.874C618.37 290.849 617.791 285.165 619.1 279.765C619.564 277.889 620.282 276.085 621.233 274.402C627.914 262.713 637.518 236.414 637.518 236.414L619.145 201.402L601.19 198.48Z" fill="black"/>
<path d="M621.232 394.701C621.232 394.701 645.869 398.875 646.704 401.38C647.539 403.885 646.704 398.04 646.704 398.04C646.704 398.04 660.901 355.043 657.597 317.064C654.293 279.085 661.773 254.028 661.773 254.028C661.773 254.028 670.542 225.642 665.531 209.361C660.52 193.08 607.906 200.177 607.906 200.177C607.906 200.177 626.279 243.175 625.862 263.63C625.862 263.63 627.95 325.413 631.708 332.509C631.671 332.473 625.825 393.004 621.232 394.701Z" fill="#4D4981"/>
<path d="M624.128 73.2537C624.128 73.2537 626.633 88.6813 651.688 82.0202L635.021 208.916C635.021 208.916 586.583 210.586 587.001 204.742L596.986 127.94L624.128 73.2537Z" fill="white"/>
<path opacity="0.1" d="M624.781 72.4188C621.519 75.6298 617.268 77.6473 612.717 78.1451C608.56 78.4636 604.519 79.664 600.862 81.6663C596.568 84.0711 591.784 87.565 590.332 91.8212C587.409 100.17 569.036 113.946 560.685 111.024L563.608 136.071C563.608 136.071 587.409 134.819 591.585 125.635L584.495 215.015H590.759C590.759 215.015 594.099 190.803 596.605 185.793C599.11 180.784 604.121 153.232 604.538 146.553C604.956 139.874 611.219 101.468 616.648 94.8251L624.818 74.9961L624.781 72.4188Z" fill="black"/>
<path opacity="0.1" d="M624.781 73.6711C621.049 76.5894 616.587 78.4259 611.882 78.98C607.727 79.3054 603.688 80.5119 600.036 82.5193C595.742 84.9242 590.958 88.4181 589.506 92.6743C586.583 101.023 568.21 114.799 559.858 111.877L562.781 136.924C562.781 136.924 586.583 135.672 590.758 126.488L583.66 215.813H589.923C589.923 215.813 593.264 191.601 595.769 186.592C598.275 181.582 603.285 154.031 603.703 147.351C604.121 140.672 610.384 102.267 615.813 95.6237L624.781 76.1668V73.6711Z" fill="black"/>
<path d="M624.781 72.8362C621.05 75.7544 616.587 77.591 611.882 78.1451C607.725 78.4636 603.684 79.664 600.027 81.6662C595.733 84.0711 590.949 87.565 589.497 91.8212C586.574 100.17 568.201 113.946 559.85 111.024L562.773 136.071C562.773 136.071 586.574 134.819 590.75 125.635L583.66 215.015H589.924C589.924 215.015 593.264 190.803 595.77 185.793C598.275 180.784 603.286 153.232 603.703 146.553C604.121 139.874 610.384 101.468 615.813 94.8251L624.791 75.4136L624.781 72.8362Z" fill="#3293E6"/>
<path opacity="0.1" d="M646.077 56.7643C645.532 52.8076 646.621 50.3392 647.121 45.7019L623.319 63.6523C623.319 63.6523 623.891 66.0753 624.327 69.6237C625.528 69.8176 626.742 69.9147 627.958 69.9141C636.219 69.9141 642.164 63.4617 646.077 56.7643Z" fill="black"/>
<path d="M627.913 68.6708C640.366 68.6708 650.462 58.5782 650.462 46.1284C650.462 33.6786 640.366 23.586 627.913 23.586C615.46 23.586 605.364 33.6786 605.364 46.1284C605.364 58.5782 615.46 68.6708 627.913 68.6708Z" fill="#FEC3BE"/>
<path opacity="0.1" d="M603.304 24.0307C603.159 20.2292 603.776 16.437 605.119 12.8775C604.746 13.4375 604.589 14.1136 604.675 14.7809C604.762 15.4481 605.088 16.0614 605.591 16.5075C606.318 12.628 608.31 9.09853 611.256 6.47051C609.649 6.73369 608.823 8.72112 609.222 10.3002C609.765 11.8425 610.731 13.2011 612.009 14.2206C611.873 11.8339 613.453 9.60141 615.45 8.29461C617.53 7.09974 619.804 6.27671 622.167 5.86249C621.357 6.15009 620.664 6.69777 620.198 7.4201C619.731 8.14243 619.517 8.99876 619.589 9.8555C619.596 10.1466 619.717 10.4234 619.925 10.6269C620.152 10.772 620.419 10.8418 620.687 10.8265C623.039 10.9172 625.395 10.8656 627.741 10.6723C630.625 10.3477 633.526 10.1932 636.428 10.2094C645.505 10.5906 654.628 16.7888 656.662 25.637C657.083 27.7839 657.305 29.9651 657.324 32.1529L657.769 43.3242C658.028 46.5834 657.893 49.8618 657.37 53.089C656.741 56.0683 655.462 58.8721 653.625 61.3004C651.787 63.7287 649.437 65.7217 646.74 67.1371C643.463 62.3909 643.172 56.2925 642.038 50.6387C641.859 49.334 641.373 48.0901 640.622 47.0087C640.233 46.474 639.689 46.0732 639.062 45.8618C638.436 45.6504 637.76 45.639 637.127 45.829C635.901 46.319 635.375 48.1885 636.392 49.0234C635.484 50.0942 633.786 49.2956 632.761 48.3427C629.896 45.626 627.924 42.1039 627.105 38.2422C626.697 36.3002 626.288 33.9044 624.382 33.2419C623.726 33.0617 623.041 33.0154 622.367 33.1058C618.391 33.378 612.173 35.0206 608.324 33.7592C604.793 32.6066 603.304 27.3794 603.304 24.0307Z" fill="black"/>
<path d="M603.722 23.6132C603.577 19.8117 604.194 16.0196 605.537 12.46C605.164 13.0201 605.007 13.6961 605.093 14.3634C605.18 15.0306 605.505 15.6439 606.009 16.09C606.736 12.2105 608.728 8.68105 611.674 6.05303C610.067 6.31621 609.241 8.30364 609.64 9.8827C610.183 11.425 611.149 12.7836 612.427 13.8031C612.291 11.4164 613.871 9.18392 615.868 7.87711C617.948 6.68225 620.221 5.85923 622.585 5.44501C621.775 5.73261 621.082 6.28029 620.616 7.00262C620.149 7.72495 619.935 8.58128 620.007 9.43802C620.014 9.7291 620.135 10.0059 620.343 10.2094C620.57 10.3545 620.836 10.4243 621.105 10.409C623.457 10.4997 625.813 10.4481 628.159 10.2548C631.043 9.93025 633.944 9.77571 636.846 9.79194C645.923 10.1731 655.046 16.3713 657.08 25.2195C657.501 27.3664 657.723 29.5476 657.742 31.7354L658.187 42.9068C658.446 46.1659 658.311 49.4443 657.788 52.6715C657.159 55.6508 655.88 58.4546 654.043 60.8829C652.205 63.3112 649.855 65.3042 647.158 66.7196C643.881 61.9734 643.59 55.875 642.456 50.2212C642.277 48.9165 641.791 47.6726 641.04 46.5912C640.651 46.0565 640.106 45.6557 639.48 45.4443C638.854 45.233 638.178 45.2215 637.545 45.4115C636.319 45.9015 635.793 47.771 636.809 48.6059C635.902 49.6767 634.204 48.8781 633.178 47.9253C630.314 45.2085 628.342 41.6864 627.523 37.8247C627.115 35.8827 626.706 33.4869 624.8 32.8244C624.144 32.6442 623.459 32.5979 622.785 32.6883C618.809 32.9605 612.591 34.6031 608.742 33.3417C605.21 32.1801 603.722 26.9619 603.722 23.6132Z" fill="#784F69"/>
<path opacity="0.1" d="M558.769 111.033C558.769 111.033 555.428 126.461 561.692 136.08L565.241 135.79L563.308 111.287L558.769 111.033Z" fill="black"/>
<path d="M559.677 111.033C559.677 111.033 556.336 126.461 562.6 136.08L566.149 135.79L564.216 111.287L559.677 111.033Z" fill="#3293E6"/>
<path opacity="0.1" d="M649.418 68.9068L676.351 92.0753C676.351 92.0753 692.218 108.356 685.537 134.655C685.537 134.655 682.614 173.061 679.274 174.731C679.274 174.731 667.582 198.108 666.747 220.233C666.747 220.233 651.088 188.715 643.989 207.918C636.891 227.121 620.388 229.834 620.388 229.834L629.574 116.251C629.574 116.251 652.758 75.9671 649.418 68.9068Z" fill="black"/>
<path d="M650.254 68.9068L677.187 92.0753C677.187 92.0753 693.054 108.356 686.373 134.655C686.373 134.655 683.45 173.061 680.11 174.731C680.11 174.731 668.418 198.108 667.583 220.233C667.583 220.233 651.089 187.046 643.981 206.248C636.873 225.451 621.224 229.844 621.224 229.844L630.41 116.306C630.41 116.306 653.594 75.9671 650.254 68.9068Z" fill="#3293E6"/>
<path d="M662.571 166.763C662.571 166.763 669.252 162.171 680.109 174.694L653.385 223.119L644.407 209.57C644.407 209.57 663.407 172.19 662.571 166.763Z" fill="#FEC3BE"/>
<path opacity="0.1" d="M656.1 169.476C656.1 169.476 670.878 186.065 676.642 183.406L681.98 170.983L661.946 162.38L656.1 169.476Z" fill="black"/>
<path d="M656.1 168.641C656.1 168.641 670.878 185.231 676.642 182.572L681.98 170.148L661.946 161.545L656.1 168.641Z" fill="#3293E6"/>
<path opacity="0.1" d="M645.315 206.403C645.315 206.403 652.35 220.814 656.099 221.649L650.653 227.91L642.719 212.882L645.315 206.403Z" fill="black"/>
<path d="M644.898 206.847C644.898 206.847 651.933 221.258 655.682 222.093L650.235 228.355L642.283 213.3L644.898 206.847Z" fill="#4D4981"/>
<path opacity="0.1" d="M658.187 117.712C658.187 117.712 659.022 147.769 655.682 159.04Z" fill="black"/>
<path opacity="0.1" d="M590.541 123.557C590.541 123.557 595.552 121.887 595.552 117.712Z" fill="black"/>
</g>
<defs>
<linearGradient id="paint0_linear" x1="311.959" y1="382.331" x2="311.959" y2="50.4118" gradientUnits="userSpaceOnUse">
<stop stop-color="#808080" stop-opacity="0.25"/>
<stop offset="0.54" stop-color="#808080" stop-opacity="0.12"/>
<stop offset="1" stop-color="#808080" stop-opacity="0.1"/>
</linearGradient>
<linearGradient id="paint1_linear" x1="185070" y1="273820" x2="185070" y2="74464.1" gradientUnits="userSpaceOnUse">
<stop stop-color="#808080" stop-opacity="0.25"/>
<stop offset="0.54" stop-color="#808080" stop-opacity="0.12"/>
<stop offset="1" stop-color="#808080" stop-opacity="0.1"/>
</linearGradient>
<clipPath id="clip0">
<rect width="701" height="425" fill="white"/>
</clipPath>
</defs>
</svg>
