<svg width="612" height="510" viewBox="0 0 612 510" fill="none" xmlns="http://www.w3.org/2000/svg">
<g clip-path="url(#clip0)">
<path opacity="0.25" d="M267.942 7.45991C295.478 -2.77325 329.001 6.02763 357.628 18.8633C447.54 59.1864 513.042 135.731 565.085 213.714C583.928 241.951 601.826 271.431 608.91 302.954C623.333 367.114 585.714 433.535 521.735 456.811C499.978 464.734 476.075 467.982 452.136 469.792C409.567 473.017 365.492 471.737 323.264 459.797C293.15 451.264 264.663 437.539 237.34 422.375C161.035 380.004 91.3504 324.98 41.1733 257.767C19.1664 228.286 0.548906 195.051 0.0124486 161.036C-0.524009 127.021 21.6475 92.8418 58.1266 87.0579C73.2084 84.6687 89.1619 87.1554 104.725 89.7152C127.64 93.4879 150.867 97.4556 173.52 95.81C196.923 94.0974 227.361 84.9552 231.628 62.6178C236.145 38.6348 240.443 17.6809 267.942 7.45991Z" fill="#3293E6"/>
<path d="M497.473 317.917C497.089 315.771 496.867 313.599 496.808 311.42C496.808 308.805 493.254 306.489 493.254 306.489C493.254 306.489 491.06 301.412 489.597 300.662C488.134 299.913 483.616 293.269 483.616 293.269C483.564 291.959 483.087 290.701 482.257 289.686C480.904 287.907 479.668 286.042 478.557 284.103C477.947 283.359 478.252 282.835 477.337 278.502C477.289 278.276 477.234 278.057 477.167 277.849C477.167 277.752 477.106 277.667 477.069 277.569C478.039 276.596 478.716 275.369 479.021 274.029C479.326 272.689 479.248 271.291 478.794 269.993C478.63 269.477 478.331 269.015 477.929 268.652C476.898 267.811 475.252 268.159 474.192 267.36L475.32 262.375C475.588 261.156 475.728 259.614 474.661 258.956C474.261 258.766 473.839 258.624 473.405 258.535C471.576 257.926 470.516 255.994 470.04 254.135C469.583 252.344 469.459 250.485 469.675 248.649C469.882 246.882 470.4 245.163 470.589 243.39C470.933 240.109 470.143 236.81 468.352 234.04C467.655 232.845 466.628 231.876 465.395 231.249C464.267 230.743 462.957 230.639 461.902 230.03C459.634 228.585 459.75 225.154 457.94 223.185C456.129 221.217 452.922 221.223 450.283 221.899C447.643 222.576 445.016 223.728 442.309 223.441C440.566 223.246 438.932 222.454 437.182 222.271C436.682 222.224 436.177 222.246 435.683 222.338V222.283C434.39 222.515 433.202 223.234 432.897 224.459C432.828 224.751 432.8 225.05 432.811 225.349C432.811 226.062 432.982 226.806 432.994 227.488C433.017 227.759 432.985 228.032 432.9 228.291C432.815 228.549 432.679 228.788 432.5 228.994C432.153 229.365 431.641 229.56 431.281 229.944C431.135 230.091 431.02 230.266 430.943 230.459C430.866 230.652 430.83 230.858 430.836 231.066C430.836 232.151 432.19 233.108 433.098 233.546H433.134C432.891 233.79 432.647 234.046 432.421 234.308C429.817 237.248 428.381 241.041 428.386 244.968C428.408 248.14 429.357 251.236 431.115 253.876C432.874 256.516 435.367 258.585 438.286 259.827L438.158 260.223C437.901 261.007 437.602 261.776 437.262 262.527C436.631 262.315 435.961 262.243 435.3 262.317C434.639 262.391 434.002 262.608 433.433 262.954C431.69 264.173 428.282 264.075 427.374 263.85C426.465 263.624 417.01 262.43 416.248 262.728C415.486 263.027 413.981 261.686 412.999 263.478C412.018 265.27 411.56 266.239 410.561 266.69C409.561 267.141 407.836 268.555 408.067 268.854C408.299 269.152 405.568 270.944 405.568 270.944C405.568 270.944 403.221 273.382 401.861 273.705C400.502 274.028 397.625 275.875 397.625 275.875L394.29 278.483C394.29 278.483 391.797 278.861 392.553 277.142C393.309 275.424 391.187 273.26 391.187 273.26C391.187 273.26 386.95 264.673 386.95 262.899C386.95 261.125 383.469 253.562 383.469 253.562L383.043 253.519L382.848 252.964C382.208 251.166 381.379 248.96 380.745 247.668C379.525 245.2 378.775 244.944 378.775 244.944C378.775 244.944 364.096 233.924 354.562 237.283C345.027 240.641 371.966 250.648 374.386 251.697C375.234 252.062 375.843 253.245 376.27 254.628C374.122 255.664 372.314 257.289 371.058 259.315C371.058 259.315 376.886 272.23 377.038 275.442C377.191 278.654 381.049 287.632 381.049 287.632C381.049 287.632 382.488 294.281 390.279 293.903C390.279 293.903 401.026 295.878 403.373 293.903C405.72 291.928 407.836 290.38 408.976 290.155C409.814 289.879 410.551 289.359 411.091 288.662C411.091 288.662 407.537 311.06 405.793 313.004C404.05 314.948 388.645 340.096 394.174 344.594C398.553 347.984 403.181 351.04 408.018 353.736C408.488 353.967 409.896 351.621 411.908 349.957C411.908 350.377 411.908 350.804 411.908 351.255C411.944 360.202 413.127 373.806 414.761 376.853C417.199 381.333 416.199 389.994 416.199 389.994C417.482 390.597 418.874 390.931 420.29 390.975C420.363 391.267 420.448 391.584 420.528 391.889C421.863 396.929 424.027 404.725 425.13 406.797C426.794 409.936 428.002 419.87 428.002 419.87C428.002 419.87 428.989 429.622 428.611 430.993C428.465 431.511 429.105 435.57 430.111 440.745C429.501 447.748 428.343 461.248 428.148 466.13C428.148 466.221 428.148 466.313 428.148 466.398V466.483C428.151 466.538 428.151 466.593 428.148 466.648C428.148 466.757 428.148 466.855 428.148 466.946C428.129 467.254 428.141 467.562 428.184 467.867C428.26 468.332 428.224 468.808 428.081 469.256C427.649 470.606 427.101 471.915 426.441 473.169C426.163 473.785 425.919 474.416 425.709 475.059C425.1 475.327 424.356 475.979 423.942 477.57C423.186 480.483 422.052 488.54 422.052 488.54C422.052 488.54 421.595 493.471 420.692 494.592C419.79 495.714 418.863 502.729 425.307 503.625C431.751 504.521 434.537 500.212 434.537 500.212L434.311 480.66V480.623C434.441 480.459 434.554 480.281 434.646 480.093V480.044C434.689 479.953 434.738 479.855 434.78 479.745L434.835 479.599L434.933 479.362C434.929 479.333 434.929 479.305 434.933 479.276C435.558 477.403 435.746 475.412 435.481 473.456V473.358V473.206C435.481 473.157 435.481 473.102 435.481 473.053V472.749C435.481 472.712 435.481 472.669 435.481 472.633C435.481 472.503 435.494 472.369 435.518 472.231C435.518 472.231 435.518 472.182 435.518 472.157L435.555 471.92V471.816C435.555 471.737 435.555 471.658 435.603 471.572C435.601 471.552 435.601 471.532 435.603 471.511C435.664 471.231 435.738 470.902 435.817 470.634V470.567L435.908 470.274C436 469.963 436.103 469.665 436.213 469.336V469.275C436.213 469.177 436.28 469.08 436.317 468.988V468.952C436.426 468.653 436.542 468.342 436.652 468.086L436.682 468.007L436.78 467.763L436.81 467.69L437.042 467.148L438.828 472.663C438.828 472.663 439.816 476.771 439.285 477.74C438.755 478.709 439.895 482.744 440.645 482.817L439.944 487.894C439.565 490.694 439.339 493.512 439.267 496.335C439.218 496.659 439.17 496.945 439.133 497.14C438.645 499.742 439.816 503.777 439.816 503.777C445.79 510.841 452.91 504.326 452.91 504.326C452.91 504.326 453.739 500.59 452.91 499.846C452.081 499.103 452.453 496.409 452.453 496.409C452.453 496.409 452.831 489.759 452.904 484.908C452.977 480.056 448.936 475.766 448.936 475.766L448.71 475.967C447.972 474.065 447.131 471.847 447.308 470.853C447.613 469.134 446.473 450.99 446.473 450.99C446.894 446.126 446.984 441.239 446.741 436.363V436.363C446.839 435.54 446.93 434.729 447.021 433.925C447.479 430.024 447.85 426.69 447.997 424.941V424.734C448.033 424.265 448.052 423.929 448.046 423.771C448.046 423.161 448.046 422.467 448.106 421.705C448.247 419.608 448.576 417.274 448.576 417.274L450.161 407.638C450.161 407.638 451.38 402.933 453.118 400.324L453.325 399.995C453.392 399.879 453.459 399.751 453.532 399.617L453.563 399.562C453.63 399.434 453.703 399.3 453.77 399.16L453.8 399.105C454.044 398.624 454.306 398.069 454.581 397.46C454.581 397.411 454.623 397.368 454.642 397.32L454.849 396.856C454.849 396.795 454.898 396.734 454.928 396.674C454.959 396.613 455.056 396.363 455.123 396.21C455.153 396.149 455.18 396.086 455.202 396.021C455.282 395.839 455.367 395.65 455.446 395.455L455.562 395.174C455.617 395.034 455.678 394.894 455.739 394.754L455.885 394.382C455.928 394.29 455.964 394.199 456.001 394.108L456.166 393.687C456.166 393.626 456.22 393.559 456.245 393.498C456.678 392.419 457.092 391.353 457.464 390.384C457.58 390.079 457.696 389.774 457.799 389.506C461.676 389.744 464.31 389.957 464.31 389.957C464.31 389.957 465.529 381.223 465.139 375.476C464.883 371.551 465.615 366.614 466.096 363.896C466.151 363.597 466.2 363.329 466.249 363.085L466.352 363.17C468.248 364.664 469.607 359.733 469.607 359.733C469.607 359.733 469.095 355.131 468.388 349.555L468.315 349C469.408 349.233 470.513 349.402 471.625 349.506C471.625 349.506 472.235 349.451 473.07 349.347C475.38 350.685 477.819 351.787 480.349 352.639L484.378 345.203C485.136 343.662 486.023 342.187 487.03 340.796C488.249 339.303 492.553 334.525 492.48 333.629C492.407 332.733 493.919 327.577 495.431 325.261C496.942 322.945 497.546 318.288 497.473 317.917ZM480.672 323.591C479.081 324.261 477.569 327.997 477.496 329.119C477.423 330.24 475.752 335.165 474.015 335.762C472.412 336.311 469.351 339.126 468.864 339.578C468.364 339.62 467.797 339.687 467.206 339.785C466.541 335.073 465.883 331.173 465.462 330.387C464.243 328.144 466.797 320.976 466.797 320.976C466.797 320.976 467.047 313.736 468.626 312.017C470.205 310.298 469.845 305.965 469.845 305.965C469.845 305.965 470.223 304.173 470.376 303.356C470.528 302.539 472.625 303.356 472.643 303.356C472.643 303.356 476.728 305.593 477.337 308.951C477.947 312.309 482.409 318.136 482.409 318.136C482.409 318.136 481.727 320.153 482.409 321.183C483.092 322.213 482.263 322.92 480.672 323.591V323.591Z" fill="url(#paint0_linear)"/>
<path d="M371.229 259.772C372.471 257.723 374.291 256.085 376.459 255.064C378.628 254.043 381.049 253.684 383.421 254.031V262.753H378.123L373.978 261.704L371.229 259.772Z" fill="#4C4981"/>
<path opacity="0.1" d="M371.229 259.772C372.471 257.723 374.291 256.085 376.459 255.064C378.628 254.043 381.049 253.684 383.421 254.031V262.753H378.123L373.978 261.704L371.229 259.772Z" fill="black"/>
<path d="M383.817 256.341L377.324 260.888C377.324 260.888 377.27 259.98 377.105 258.736C376.782 256.384 376.056 252.855 374.49 252.172C372.106 251.124 345.57 241.141 354.982 237.782C364.395 234.424 378.836 245.431 378.836 245.431C378.836 245.431 379.58 245.687 380.769 248.143C381.378 249.436 382.213 251.636 382.841 253.434C383.421 255.055 383.817 256.341 383.817 256.341Z" fill="#FEC3BE"/>
<path d="M435.682 263.344L436.42 262.997L438.492 265.361L436.798 268.976L433.908 267.818L434.579 264.929L435.682 263.344Z" fill="#4C4981"/>
<path d="M425.861 475.022C425.861 475.022 423.996 474.802 423.252 477.71C422.509 480.617 421.387 488.68 421.387 488.68C421.387 488.68 420.942 493.599 420.046 494.72C419.15 495.842 418.26 502.845 424.593 503.734C430.927 504.624 433.689 500.327 433.689 500.327L433.463 480.781L425.861 475.022Z" fill="#444053"/>
<path d="M447.966 475.899C447.966 475.899 451.953 480.166 451.88 485.005C451.807 489.844 451.429 496.482 451.429 496.482C451.429 496.482 451.063 499.169 451.88 499.913C452.697 500.657 451.88 504.387 451.88 504.387C451.88 504.387 444.869 510.89 438.98 503.838C438.98 503.838 437.834 499.809 438.31 497.213C438.785 494.617 440.114 482.945 440.114 482.945L447.966 475.899Z" fill="#444053"/>
<path d="M457.842 386.776C457.842 386.776 453.818 398.027 452.099 400.635C450.38 403.244 449.198 407.949 449.198 407.949L447.631 417.56C447.325 419.709 447.15 421.875 447.107 424.045C447.18 426.209 443.23 457.731 443.23 457.731L436.969 465.709C436.969 465.709 434.213 471.298 434.658 473.632C435.103 475.967 434.36 479.672 433.439 480.788C433.439 480.788 433.293 488.102 433.067 489.729C432.842 491.356 433.89 495.994 433.067 496.811C432.244 497.628 421.29 497.262 420.991 495.915C420.692 494.568 422.332 488.089 422.332 488.089L423.301 481.83C423.301 481.83 425.24 478.405 424.795 477.283C424.35 476.162 425.612 473.559 425.685 473.334C425.758 473.108 427.776 469.458 427.404 468.044C427.032 466.63 429.751 436.558 429.751 436.558L437.426 382.674L457.842 386.776Z" fill="#FEC3BE"/>
<path opacity="0.1" d="M457.842 386.776C457.842 386.776 457.232 388.47 456.397 390.695C455.068 394.205 453.154 399.038 452.099 400.635C450.386 403.244 449.192 407.949 449.192 407.949L447.625 417.567C447.322 419.716 447.149 421.881 447.107 424.051C447.107 424.905 446.534 430.347 445.802 436.619C444.674 446.206 443.23 457.737 443.23 457.737L436.969 465.715C436.969 465.715 436.652 466.325 436.256 467.288C435.469 469.116 434.36 472.084 434.658 473.614C435.103 475.924 434.36 479.648 433.439 480.77C433.439 480.77 433.287 488.083 433.067 489.711C432.848 491.338 433.89 495.97 433.067 496.793C432.244 497.616 421.29 497.244 420.991 495.903C420.692 494.562 422.332 488.077 422.332 488.077L423.301 481.812C423.301 481.812 425.24 478.386 424.789 477.265C424.338 476.144 425.612 473.541 425.685 473.316C425.758 473.09 427.776 469.439 427.404 468.025C427.118 466.947 428.623 449.29 429.324 440.916C429.562 438.283 429.714 436.57 429.714 436.57L436.317 390.213L436.853 386.477L437.39 382.686L457.842 386.776Z" fill="black"/>
<path d="M451.136 498.865C451.203 499.688 440.62 500.882 439.108 499.986C437.597 499.09 439.108 487.986 439.108 487.986L439.797 482.921C439.06 482.842 437.938 478.819 438.456 477.85C438.974 476.881 438.011 472.785 438.011 472.785L436.255 467.3L435.182 463.942C433.439 460.096 430.915 449.125 429.349 440.934C428.361 435.79 427.733 431.737 427.873 431.219C428.245 429.878 427.264 420.114 427.264 420.114C427.264 420.114 426.044 410.198 424.435 407.071C423.344 404.999 421.216 397.216 419.9 392.194C419.229 389.616 418.766 387.763 418.766 387.763C418.766 387.763 430.031 386.818 436.865 386.489C440.004 386.337 442.211 386.318 441.955 386.574C441.699 386.83 441.632 388.196 441.644 390.17C441.675 395.284 442.388 404.28 443.144 406.699C444.186 410.051 445.229 420.108 444.784 421.083C444.339 422.058 444.485 428.537 444.485 428.537C445.253 431.169 445.695 433.885 445.802 436.625C446.04 441.479 445.955 446.343 445.546 451.185C445.546 451.185 446.661 469.299 446.363 471.012C446.064 472.724 448.746 478.094 448.746 479.136C448.746 480.178 449.49 487.26 449.49 487.26C449.49 487.26 451.087 498.048 451.136 498.865Z" fill="#FEC3BE"/>
<path d="M457.019 281.159L455.739 282.542L454.903 283.444L450.027 288.686L437.426 290.106L430.72 288.314L429.062 287.869C429.062 287.869 429.062 284.505 429.361 280.47C429.787 275.296 430.805 269.012 433.238 267.299C434.456 266.346 435.428 265.115 436.073 263.71C436.559 262.74 436.967 261.733 437.292 260.699C437.341 260.565 437.377 260.437 437.42 260.303C437.968 258.496 438.364 256.647 438.602 254.775C438.602 254.775 440.212 253.885 442.449 252.849C448.283 250.124 458.36 246.364 454.855 254.775C454.339 256.006 453.9 257.268 453.538 258.553C453.483 258.742 453.434 258.931 453.392 259.114C452.221 263.795 452.995 266.635 453.867 268.201C454.014 268.473 454.184 268.732 454.373 268.975C454.611 269.302 454.897 269.592 455.22 269.835L456.671 279.044L456.793 279.806L457.019 281.159Z" fill="#FEC3BE"/>
<path opacity="0.1" d="M454.861 255.226C454.197 256.822 455.184 253.921 454.861 255.226C452.203 257.115 445.943 262.497 442.425 262.497C440.048 262.497 439.334 262.064 437.298 261.144C437.915 259.215 438.353 257.234 438.609 255.226C438.609 255.226 459.708 243.597 454.861 255.226Z" fill="black"/>
<path d="M460.231 245.431C460.228 249.445 458.74 253.316 456.054 256.299C453.367 259.282 449.672 261.166 445.68 261.589C445.119 261.644 444.552 261.68 443.979 261.68C440.765 261.68 437.623 260.727 434.95 258.942C432.277 257.156 430.194 254.619 428.964 251.649C427.734 248.68 427.412 245.413 428.039 242.261C428.666 239.109 430.214 236.214 432.487 233.942C434.76 231.669 437.656 230.122 440.809 229.495C443.961 228.868 447.229 229.19 450.199 230.419C453.168 231.649 455.707 233.732 457.492 236.404C459.278 239.076 460.231 242.218 460.231 245.431V245.431Z" fill="#FEC3BE"/>
<path opacity="0.1" d="M462.542 317.46L460.225 323.5C460.225 323.5 458.342 323.579 455.403 323.67C445.485 323.987 423.63 324.389 422.655 321.842C422.436 321.195 422.321 320.519 422.314 319.837C422.186 315.954 423.996 309.993 423.996 309.993C423.996 309.993 425.039 298.066 425.039 297.548C425.039 297.03 424.142 288.674 424.142 288.674L425.935 281.97L430.927 278.465C430.927 278.465 433.165 281.896 434.506 282.189C435.847 282.482 437.639 284.133 437.639 284.133C437.639 284.133 442.034 286.815 443.455 285.322C444.875 283.829 455.903 277.271 455.903 277.271L461.719 283.682L462.542 317.46Z" fill="black"/>
<path d="M462.542 318.386L460.226 324.42C460.226 324.42 458.342 324.505 455.404 324.596H455.117C453.849 324.639 452.398 324.682 450.85 324.712C442.967 324.895 432.11 324.944 426.435 324.103C424.301 323.798 422.905 323.359 422.674 322.762C422.545 322.403 422.455 322.031 422.405 321.653C422.369 321.372 422.344 321.043 422.332 320.757C422.204 316.874 424.015 310.914 424.015 310.914C424.015 310.914 425.057 298.986 425.057 298.468C425.057 297.95 424.161 289.594 424.161 289.594L425.953 282.89L429.385 280.488L430.946 279.391C431.471 280.177 432.043 280.93 432.659 281.646C433.14 282.292 433.784 282.799 434.524 283.115C435.872 283.414 437.658 285.06 437.658 285.06C437.658 285.06 442.053 287.741 443.473 286.248C444.552 285.108 451.258 281.006 454.355 279.135C455.306 278.556 455.922 278.197 455.922 278.197L456.702 279.062L461.737 284.608L462.542 318.386Z" fill="white"/>
<path opacity="0.1" d="M383.817 256.341L377.324 260.888C377.324 260.888 377.27 259.979 377.105 258.736C380.311 257.383 382.262 254.39 382.823 253.434C383.42 255.055 383.817 256.341 383.817 256.341Z" fill="black"/>
<path d="M406.629 271.773L405.214 271.395C405.214 271.395 402.898 273.833 401.557 274.156C400.215 274.479 397.387 276.313 397.387 276.313L394.101 278.922C394.101 278.922 391.663 279.3 392.388 277.581C393.113 275.862 391.047 273.705 391.047 273.705C391.047 273.705 386.871 265.135 386.871 263.344C386.871 261.552 383.421 254.031 383.421 254.031C383.421 254.031 379.092 262.454 371.192 259.772C371.192 259.772 376.934 272.663 377.081 275.868C377.227 279.074 381.031 288.015 381.031 288.015C381.031 288.015 382.451 294.653 390.126 294.281C390.126 294.281 400.715 296.249 403.026 294.281C405.336 292.312 407.421 290.764 408.512 290.539C409.603 290.313 410.597 289.051 410.597 289.051V280.19L406.629 271.773Z" fill="#4C4981"/>
<path opacity="0.1" d="M393.357 280.189C393.357 280.189 395.223 287.125 394.028 287.869L393.357 280.189Z" fill="black"/>
<path opacity="0.1" d="M455.403 324.566C445.485 324.883 423.63 325.279 422.655 322.738C422.436 322.091 422.321 321.415 422.313 320.732L454.714 322.439L455.403 324.566Z" fill="black"/>
<path opacity="0.1" d="M457.842 386.776C457.842 386.776 457.232 388.47 456.397 390.695C452.282 390.445 446.832 390.183 441.657 390.146C439.828 390.146 438.035 390.146 436.341 390.207C432.744 390.317 429.635 390.609 427.654 391.17C425.149 391.941 422.53 392.279 419.912 392.169C419.241 389.591 418.778 387.739 418.778 387.739C418.778 387.739 430.043 386.794 436.877 386.465L437.414 382.674L457.842 386.776Z" fill="black"/>
<path d="M466.565 359.495L465.297 362.177C465.297 362.177 465.121 362.975 464.895 364.243C464.419 366.974 463.676 371.898 463.956 375.823C464.328 381.564 463.133 390.28 463.133 390.28C463.133 390.28 435.701 387.97 427.654 390.28C419.607 392.59 415.645 390.28 415.645 390.28C415.645 390.28 416.62 381.638 414.23 377.164C412.603 374.117 411.456 360.513 411.42 351.566C411.42 347.44 411.627 344.313 412.145 343.679C413.785 341.668 420.79 321.543 420.79 321.543L422.387 321.628L426.654 321.854L450.917 323.134L454.727 323.335L455.129 324.554L466.565 359.495Z" fill="#444053"/>
<path d="M478.642 350.548L478.867 352.938C478.867 352.938 466.852 349.025 467.461 344.216C468.071 339.407 467.461 339.95 467.461 339.95L477.118 340.766L478.642 350.548Z" fill="#4C4981"/>
<path opacity="0.1" d="M478.642 350.548L478.867 352.938C478.867 352.938 466.852 349.025 467.461 344.216C468.071 339.407 467.461 339.95 467.461 339.95L477.118 340.766L478.642 350.548Z" fill="black"/>
<path opacity="0.1" d="M401.373 282.115C402.6 283.157 404.046 283.91 405.604 284.316C405.153 284.218 404.734 284.008 404.385 283.706C403.525 283.097 402.709 282.432 401.879 281.786C401.209 281.262 400.374 280.391 399.551 280.177C400.09 280.885 400.7 281.534 401.373 282.115V282.115Z" fill="black"/>
<path opacity="0.1" d="M401.556 285.255C401.943 285.691 402.256 286.187 402.483 286.724C402.868 288.241 402.844 289.832 402.416 291.337L400.489 286.693C400.154 285.901 399.819 285.108 399.417 284.353C399.24 284.03 398.13 282.683 398.258 282.402C398.6 281.61 401.197 284.81 401.556 285.255Z" fill="black"/>
<path opacity="0.1" d="M455.306 310.974C456.619 310.815 457.847 310.241 458.811 309.335C456.83 309.585 454.952 310.365 453.001 310.773C451.19 311.194 449.291 311.019 447.588 310.274C449.831 311.371 452.916 311.407 455.306 310.974Z" fill="black"/>
<path opacity="0.1" d="M449.704 297.328C449.348 297.381 448.987 297.291 448.698 297.078C447.21 296.225 445.743 295.335 444.296 294.409C442.888 293.501 441.187 292.58 439.986 291.435C442.943 294.104 445.698 296.359 449.704 297.328Z" fill="black"/>
<path opacity="0.1" d="M453.837 313.139C454.618 313.174 455.4 313.11 456.165 312.95C456.939 312.789 457.624 312.34 458.079 311.694C457.803 311.63 457.512 311.676 457.269 311.822C454.907 312.816 452.313 313.126 449.783 312.718C450.996 313.236 452.55 313.132 453.837 313.139Z" fill="black"/>
<path opacity="0.1" d="M439.718 347.744C438.166 348.212 436.571 348.525 434.957 348.677C433.701 348.735 432.442 348.71 431.189 348.604L425.093 348.22L422.045 348.025C421.685 348.025 420.216 348.025 420.942 347.299C421.307 346.946 423.344 347.171 423.868 347.153C424.88 347.121 425.896 347.102 426.916 347.098C428.934 347.098 430.958 347.098 432.975 347.22C435.237 347.33 437.462 347.5 439.718 347.744Z" fill="black"/>
<path opacity="0.1" d="M432.653 350.761C431.616 350.718 430.281 351.334 429.215 351.468C428.021 351.609 426.819 351.656 425.618 351.608C423.242 351.551 420.895 351.073 418.687 350.194C423.338 350.432 428.001 350.572 432.653 350.761Z" fill="black"/>
<path opacity="0.1" d="M419.595 353.955C420.046 354.046 420.49 354.168 420.924 354.321C423.497 355.052 426.234 354.406 428.849 353.76C428.197 354.741 427.02 355.162 425.844 355.43C423.93 355.915 421.935 355.987 419.992 355.643C419.382 355.521 417.852 355.302 417.553 354.668C417.053 353.735 419.022 353.863 419.595 353.955Z" fill="black"/>
<path opacity="0.1" d="M434.018 358.764C434.789 358.922 435.551 359.125 436.298 359.373C439.194 360.092 442.199 359.105 445.107 358.441C448.602 357.647 452.187 357.315 455.769 357.453C455.129 357.453 454.111 358.014 453.483 358.203C452.66 358.453 451.825 358.685 450.99 358.892C449.35 359.294 447.686 359.623 446.009 359.861C442.625 360.35 439.2 360.499 435.786 360.306C434.225 360.22 431.519 360.379 430.184 359.593C431.338 358.907 432.684 358.616 434.018 358.764Z" fill="black"/>
<path opacity="0.1" d="M435.109 266.842C435.109 266.842 435.256 273.705 434.14 276.837C433.787 277.813 433.238 279.611 432.64 281.628C431.988 283.865 431.275 286.37 430.726 288.332C430.178 290.295 429.812 291.611 429.812 291.611C429.812 291.611 427.294 312.114 426.642 321.884C426.642 322.055 426.642 322.231 426.605 322.396C426.569 322.945 426.508 323.517 426.416 324.109C424.966 333.812 416.596 348.774 413.785 349.969C412.909 350.371 412.109 350.921 411.42 351.596C411.42 347.47 411.627 344.343 412.145 343.709C413.785 341.698 420.79 321.573 420.79 321.573L422.387 321.659C422.35 321.378 422.326 321.049 422.314 320.763C422.186 316.88 423.996 310.92 423.996 310.92C423.996 310.92 425.039 298.992 425.039 298.474C425.039 297.956 424.143 289.6 424.143 289.6L425.935 282.896L429.367 280.494C429.794 275.32 430.812 269.036 433.244 267.323C434.462 266.37 435.434 265.139 436.079 263.734C436.56 263.801 435.682 263.374 435.682 263.374L435.109 266.842Z" fill="black"/>
<path d="M436.42 262.997C435.799 262.784 435.138 262.712 434.485 262.786C433.833 262.86 433.205 263.077 432.647 263.423C430.927 264.642 427.575 264.538 426.678 264.319C425.782 264.1 416.467 262.899 415.705 263.198C414.943 263.496 413.468 262.155 412.499 263.947C411.53 265.739 411.085 266.702 410.115 267.147C409.146 267.592 407.427 269.012 407.677 269.311C407.927 269.609 405.238 271.395 405.238 271.395L410.676 289.07C410.676 289.07 407.171 311.426 405.458 313.364C403.745 315.302 388.535 340.419 393.979 344.892C398.289 348.28 402.85 351.337 407.622 354.034C408.232 354.333 410.377 350.31 413.358 349.043C416.339 347.775 425.587 331.002 426.16 321.464C426.733 311.925 429.367 290.685 429.367 290.685C429.367 290.685 432.573 279.056 433.689 275.924C434.805 272.791 434.658 265.928 434.658 265.928L436.42 262.997Z" fill="#4C4981"/>
<path opacity="0.1" d="M466.565 359.495L465.297 362.177C465.297 362.177 465.12 362.976 464.895 364.243C464.669 364.215 464.456 364.119 464.285 363.969C462.42 362.476 451.483 351.225 450.941 341.235C450.557 333.867 450.74 327.516 450.862 324.688C450.898 323.798 450.935 323.262 450.935 323.146C450.935 323.146 459.433 312.858 458.463 309.213C457.494 305.569 455.257 286.053 455.257 286.053L454.928 283.493L454.361 279.166L453.007 268.695L454.409 269.024C454.648 269.351 454.933 269.641 455.257 269.884L456.708 279.093L461.743 284.639L462.566 318.404L460.25 324.438C460.25 324.438 458.366 324.524 455.427 324.615H455.141L466.565 359.495Z" fill="black"/>
<path d="M471.259 303.758C471.259 303.758 469.175 302.935 469.028 303.758C468.882 304.581 468.504 306.361 468.504 306.361C468.504 306.361 468.876 310.688 467.285 312.401C465.694 314.113 465.456 321.342 465.456 321.342C465.456 321.342 462.944 328.497 464.133 330.734C464.566 331.544 465.236 335.61 465.907 340.485C466.334 343.533 466.754 346.879 467.126 349.938C467.803 355.497 468.309 360.099 468.309 360.099C468.309 360.099 466.962 365.017 465.096 363.524C463.231 362.031 452.294 350.78 451.758 340.79C451.392 333.775 451.539 327.68 451.66 324.676C451.709 323.402 451.758 322.683 451.758 322.683C451.758 322.683 460.256 312.395 459.287 308.744C458.317 305.093 456.08 285.584 456.08 285.584L455.69 282.567L455.269 279.324L455.172 278.611L453.825 268.25C454.062 268.305 462.426 270.194 463.53 271.297C464.633 272.401 471.454 273.979 471.454 273.979C472.483 274.258 473.418 274.808 474.163 275.571C474.907 276.334 475.432 277.283 475.685 278.319C475.752 278.526 475.801 278.745 475.85 278.971C476.746 283.298 476.459 283.816 477.069 284.566C477.679 285.315 471.259 303.758 471.259 303.758Z" fill="#4C4981"/>
<path opacity="0.1" d="M467.175 349.933C464.127 349.323 459.604 347.915 459.707 344.807C459.799 341.9 463.298 340.851 465.95 340.479C466.376 343.515 466.797 346.873 467.175 349.933Z" fill="black"/>
<path d="M476.63 348.384C476.508 348.646 476.021 348.872 475.326 349.073C473.695 349.461 472.039 349.732 470.369 349.884C470.369 349.884 460.006 349.061 460.152 344.362C460.262 340.991 464.944 340.095 467.571 339.894C468.153 339.84 468.737 339.816 469.321 339.821C469.321 339.821 477.075 347.421 476.63 348.384Z" fill="#FEC3BE"/>
<path opacity="0.1" d="M476.63 348.384C476.508 348.646 476.02 348.872 475.325 349.073C472.625 345.459 468.857 340.821 467.01 340.412L467.571 339.894C468.153 339.84 468.737 339.816 469.321 339.821C469.321 339.821 477.075 347.421 476.63 348.384Z" fill="black"/>
<path d="M474.021 284.066L477.069 284.517C478.169 286.455 479.391 288.322 480.727 290.106C481.546 291.124 482.016 292.378 482.068 293.683C482.068 293.683 486.542 300.315 487.956 301.058C489.371 301.802 491.535 306.873 491.535 306.873C491.535 306.873 495.04 309.183 495.04 311.791C495.102 313.966 495.326 316.134 495.711 318.276C495.79 318.648 495.193 323.274 493.699 325.59C492.205 327.906 490.712 333.013 490.791 333.927C490.87 334.842 486.615 339.596 485.427 341.083C484.434 342.473 483.562 343.945 482.817 345.483L478.867 352.937C478.867 352.937 470.516 340.638 467.461 339.967C467.461 339.967 470.887 336.688 472.6 336.091C474.313 335.494 475.959 330.606 476.033 329.46C476.106 328.314 477.599 324.615 479.16 323.975C480.72 323.335 481.549 322.634 480.879 321.585C480.208 320.537 480.879 318.538 480.879 318.538C480.879 318.538 476.478 312.724 475.88 309.396C475.283 306.068 471.259 303.807 471.259 303.807L468.949 298.139L474.021 284.066Z" fill="#4C4981"/>
<path opacity="0.1" d="M485.11 311.889C486.796 310.465 488.919 309.661 491.126 309.609C489.712 309.853 488.225 310.164 487.188 311.151C486.781 311.579 486.416 312.044 486.097 312.541C485.744 313.047 482.866 316.704 482.44 316.125C481.726 315.277 484.53 312.383 485.11 311.889Z" fill="black"/>
<path opacity="0.1" d="M478.355 308.36C478.812 308.321 479.25 308.16 479.623 307.896C479.997 307.631 480.294 307.272 480.483 306.855C480.846 306.015 481.071 305.121 481.147 304.209C481.366 302.683 481.673 301.171 482.068 299.681C482.187 299.386 482.237 299.069 482.214 298.752C482.192 298.435 482.098 298.128 481.94 297.853C481.776 297.376 481.555 296.922 481.282 296.5C480.733 297.109 480.574 298.529 480.349 299.346C480.068 300.358 479.812 301.375 479.569 302.393C479.441 302.881 478.429 308.36 478.355 308.36Z" fill="black"/>
<path opacity="0.1" d="M475.716 278.27C475.415 278.663 475.069 279.019 474.685 279.331C473.466 280.3 471.851 281.116 471.698 282.646C471.741 283.143 471.678 283.643 471.515 284.115C471.125 284.785 470.168 284.724 469.406 284.596C468.763 284.538 468.147 284.311 467.62 283.938C466.821 283.256 466.748 282.037 466.139 281.177C465.768 280.734 465.3 280.381 464.772 280.148C464.243 279.914 463.668 279.806 463.09 279.83C461.951 279.794 460.817 280.05 459.677 280.098C458.944 280.135 458.209 280.086 457.488 279.952C457.25 279.916 457.014 279.867 456.781 279.806C456.272 279.68 455.774 279.511 455.294 279.3C455.045 279.201 454.803 279.087 454.568 278.959C453.805 278.567 453.098 278.075 452.465 277.496C451.349 276.472 450.423 275.058 450.514 273.54C450.569 272.608 450.99 271.749 451.124 270.828C451.581 268.195 449.831 265.709 447.936 263.825C447.18 263.076 446.375 262.35 445.619 261.589C444.442 260.503 443.513 259.177 442.894 257.7C442.385 256.128 442.219 254.466 442.406 252.824C442.578 251.16 442.625 249.485 442.547 247.814C441.986 241.89 436.926 237.35 431.866 234.881L431.641 234.765C433.142 233.043 434.989 231.657 437.063 230.697C439.136 229.737 441.389 229.225 443.673 229.195C445.958 229.164 448.223 229.616 450.322 230.521C452.42 231.425 454.303 232.762 455.85 234.444C457.396 236.126 458.57 238.115 459.295 240.281C460.021 242.447 460.281 244.742 460.058 247.016C459.836 249.289 459.137 251.49 458.006 253.475C456.875 255.46 455.338 257.184 453.495 258.535C453.44 258.724 453.392 258.913 453.349 259.096C452.178 263.777 452.953 266.617 453.824 268.183C454.062 268.238 462.426 270.127 463.529 271.231C464.633 272.334 471.454 273.912 471.454 273.912C472.491 274.188 473.434 274.739 474.184 275.506C474.934 276.272 475.463 277.228 475.716 278.27V278.27Z" fill="black"/>
<path d="M430.568 230.469C430.903 230.085 431.409 229.89 431.751 229.518C432.805 228.372 431.751 226.501 432.135 224.99C432.549 223.313 434.61 222.582 436.329 222.759C438.048 222.936 439.657 223.728 441.376 223.923C444.046 224.222 446.631 223.064 449.234 222.387C451.837 221.711 454.983 221.674 456.775 223.667C458.567 225.66 458.445 229.055 460.677 230.499C461.707 231.164 463.005 231.237 464.121 231.718C465.342 232.345 466.354 233.312 467.035 234.504C468.801 237.277 469.578 240.565 469.242 243.835C469.053 245.602 468.541 247.321 468.333 249.088C468.123 250.924 468.247 252.782 468.699 254.574C469.169 256.402 470.187 258.377 472.009 258.962C472.431 259.055 472.84 259.196 473.229 259.382C474.283 260.041 474.143 261.589 473.875 262.796L472.79 267.799C473.832 268.592 475.454 268.25 476.447 269.085C476.845 269.449 477.14 269.912 477.301 270.426C477.791 271.826 477.844 273.341 477.453 274.771C477.062 276.201 476.246 277.479 475.112 278.435C473.893 279.404 472.278 280.221 472.125 281.744C472.172 282.241 472.109 282.743 471.942 283.213C471.558 283.884 470.595 283.823 469.833 283.695C469.192 283.636 468.578 283.409 468.053 283.036C467.248 282.354 467.181 281.135 466.572 280.275C466.201 279.833 465.733 279.481 465.204 279.247C464.676 279.014 464.101 278.905 463.524 278.928C462.377 278.892 461.25 279.148 460.104 279.203C457.46 279.311 454.88 278.379 452.916 276.606C451.795 275.576 450.874 274.168 450.959 272.645C451.014 271.718 451.435 270.853 451.569 269.933C452.02 267.306 450.277 264.813 448.381 262.93C446.485 261.046 444.26 259.309 443.333 256.804C442.175 253.702 443.297 250.24 442.986 246.949C442.425 241.019 437.371 236.484 432.305 234.01C431.178 233.431 429.257 231.962 430.568 230.469Z" fill="#444053"/>
<path opacity="0.1" d="M470.436 281.653C469.632 280.964 469.564 279.751 468.955 278.892C468.584 278.448 468.116 278.096 467.588 277.861C467.06 277.627 466.484 277.516 465.907 277.539C464.761 277.502 463.627 277.758 462.487 277.813C459.834 277.929 457.242 276.994 455.275 275.21C454.153 274.186 453.239 272.772 453.324 271.255C453.379 270.322 453.8 269.457 453.934 268.543C454.391 265.91 452.642 263.417 450.746 261.534C448.85 259.65 446.631 257.913 445.698 255.408C444.546 252.312 445.698 248.85 445.357 245.553C444.79 239.623 439.736 235.088 434.676 232.614C433.494 232.035 431.574 230.566 432.884 229.073C433.213 228.689 433.719 228.494 434.061 228.122C435.115 226.982 434.061 225.105 434.451 223.6C434.526 223.3 434.656 223.017 434.835 222.765C433.561 223.002 432.396 223.722 432.086 224.94C431.714 226.452 432.756 228.323 431.702 229.469C431.36 229.841 430.854 230.036 430.519 230.414C429.208 231.907 431.129 233.382 432.311 233.955C437.377 236.429 442.431 240.97 442.992 246.894C443.302 250.191 442.181 253.653 443.339 256.755C444.266 259.254 446.491 261.022 448.387 262.881C450.282 264.74 452.044 267.251 451.575 269.884C451.318 270.775 451.114 271.68 450.965 272.596C450.88 274.113 451.8 275.527 452.922 276.551C454.886 278.336 457.476 279.271 460.128 279.154C461.274 279.099 462.402 278.849 463.548 278.879C464.125 278.858 464.7 278.968 465.228 279.203C465.757 279.437 466.224 279.79 466.596 280.232C467.205 281.092 467.272 282.311 468.077 282.993C468.603 283.363 469.217 283.588 469.857 283.646C470.619 283.786 471.582 283.835 471.966 283.17C472.103 282.899 472.162 282.595 472.137 282.293C471.524 282.232 470.937 282.012 470.436 281.653V281.653Z" fill="black"/>
<path d="M381.695 245.431H339.529V203.889H381.726L381.695 245.431ZM381.086 182.795H340.138C340.138 118.239 401.514 122.012 401.514 81.1705C401.514 58.6747 383.097 40.6524 360.597 40.6524C338.096 40.6524 319.686 60.0826 319.686 81.8105H278.769C278.75 71.0618 280.854 60.4152 284.96 50.4812C289.066 40.5472 295.092 31.5211 302.694 23.9206C310.296 16.3202 319.324 10.2948 329.261 6.18996C339.197 2.08514 349.846 -0.0183446 360.597 0.000120522C405.793 0.000120522 442.425 36.0508 442.425 81.1705C442.425 132.239 381.055 138.053 381.055 182.795H381.086Z" fill="#3293E6"/>
<path opacity="0.1" d="M171.386 233.059H160.51V222.32H171.386V233.059ZM171.221 216.908H160.675C160.675 200.269 176.494 201.238 176.494 190.7C176.489 189.321 176.211 187.957 175.678 186.685C175.145 185.414 174.367 184.26 173.387 183.289C172.408 182.318 171.247 181.55 169.97 181.028C168.694 180.506 167.327 180.241 165.948 180.247C163.163 180.312 160.511 181.452 158.549 183.43C156.587 185.407 155.468 188.067 155.426 190.852H144.88C144.95 185.319 147.192 180.034 151.123 176.138C155.054 172.242 160.359 170.047 165.895 170.025C171.43 170.003 176.752 172.158 180.713 176.023C184.674 179.888 186.958 185.155 187.071 190.688C187.041 203.852 171.221 205.352 171.221 216.883V216.908Z" fill="#3293E6"/>
<path opacity="0.1" d="M253.732 307.665H242.856V296.957H253.732V307.665ZM253.573 291.52H243.027C243.027 274.875 258.847 275.85 258.847 265.313C258.841 263.934 258.564 262.57 258.03 261.299C257.497 260.028 256.719 258.874 255.739 257.904C254.76 256.933 253.599 256.166 252.322 255.645C251.046 255.123 249.679 254.859 248.3 254.866C245.504 254.916 242.836 256.052 240.862 258.034C238.888 260.015 237.763 262.687 237.723 265.483H227.177C227.247 259.95 229.489 254.665 233.421 250.769C237.352 246.873 242.657 244.678 248.192 244.656C253.727 244.634 259.049 246.788 263.01 250.654C266.972 254.519 269.255 259.786 269.368 265.319C269.387 278.483 253.573 279.989 253.573 291.52Z" fill="#3293E6"/>
<path opacity="0.1" d="M303.805 175.591H295.923V167.844H303.805V175.591ZM303.69 163.883H296.045C296.045 151.827 307.512 152.528 307.512 144.897C307.507 143.898 307.306 142.91 306.919 141.989C306.532 141.068 305.968 140.232 305.258 139.529C304.548 138.827 303.706 138.27 302.782 137.893C301.857 137.515 300.866 137.323 299.867 137.328C297.844 137.368 295.916 138.193 294.49 139.628C293.064 141.063 292.251 142.996 292.223 145.019H284.578C284.562 140.965 286.157 137.071 289.013 134.193C291.869 131.315 295.751 129.689 299.806 129.672C303.861 129.656 307.757 131.251 310.635 134.106C313.514 136.962 315.14 140.843 315.156 144.897C315.144 154.436 303.69 155.527 303.69 163.883V163.883Z" fill="#3293E6"/>
<path opacity="0.1" d="M438.432 186.525H433.976V182.137H438.432V186.525ZM438.365 179.912H434.018C434.018 173.098 440.498 173.494 440.498 169.179C440.498 168.615 440.386 168.056 440.169 167.535C439.951 167.014 439.633 166.542 439.231 166.145C438.83 165.748 438.354 165.435 437.83 165.224C437.307 165.012 436.747 164.906 436.182 164.913C435.039 164.936 433.95 165.403 433.144 166.213C432.337 167.024 431.877 168.116 431.86 169.258H427.538C427.589 167.006 428.517 164.863 430.125 163.285C431.733 161.706 433.893 160.818 436.147 160.81C438.4 160.801 440.568 161.672 442.188 163.238C443.808 164.803 444.753 166.94 444.821 169.191C444.845 174.549 438.365 175.189 438.365 179.912V179.912Z" fill="#3293E6"/>
<path opacity="0.1" d="M506.562 386.111H502.105V381.723H506.562V386.111ZM506.495 379.498H502.173C502.173 372.678 508.659 373.08 508.659 368.765C508.651 367.627 508.191 366.538 507.381 365.738C506.57 364.938 505.475 364.492 504.337 364.499C503.193 364.521 502.103 364.987 501.296 365.797C500.49 366.608 500.03 367.701 500.015 368.844H495.692C495.743 366.592 496.671 364.449 498.279 362.871C499.887 361.292 502.048 360.404 504.301 360.396C506.554 360.387 508.722 361.258 510.342 362.824C511.962 364.389 512.907 366.526 512.975 368.777C512.999 374.159 506.519 374.775 506.519 379.498H506.495Z" fill="#3293E6"/>
</g>
<defs>
<linearGradient id="paint0_linear" x1="425.021" y1="507.117" x2="425.021" y2="221.424" gradientUnits="userSpaceOnUse">
<stop stop-color="#808080" stop-opacity="0.25"/>
<stop offset="0.54" stop-color="#808080" stop-opacity="0.12"/>
<stop offset="1" stop-color="#808080" stop-opacity="0.1"/>
</linearGradient>
<clipPath id="clip0">
<rect width="612" height="510" fill="white"/>
</clipPath>
</defs>
</svg>
