<svg width="23" height="23" viewBox="0 0 23 23" fill="none" xmlns="http://www.w3.org/2000/svg">
<g clip-path="url(#clip0)">
<path d="M0.406248 11.0894L5.70591 13.0674L7.7572 19.6643C7.88846 20.0868 8.40511 20.243 8.74804 19.9626L11.7022 17.5544C12.0118 17.3021 12.4529 17.2895 12.7765 17.5244L18.1047 21.3928C18.4715 21.6594 18.9912 21.4584 19.0832 21.0151L22.9864 2.24013C23.0869 1.7559 22.6111 1.35195 22.15 1.53027L0.400038 9.92075C-0.136705 10.1277 -0.132029 10.8877 0.406248 11.0894ZM7.42662 12.0144L17.7841 5.63524C17.9703 5.52093 18.1618 5.77262 18.0019 5.9209L9.45399 13.8666C9.15353 14.1463 8.95972 14.5206 8.90483 14.9269L8.61365 17.0847C8.57508 17.3728 8.17036 17.4014 8.09086 17.1226L6.97099 13.1877C6.84272 12.7389 7.02964 12.2595 7.42662 12.0144Z" fill="white"/>
</g>
<defs>
<clipPath id="clip0">
<rect width="23" height="23" fill="white"/>
</clipPath>
</defs>
</svg>
